/* XPM */
static char *fa1cbd2243b14bddbf165efcce085de8UCic59irpPdgPN52[] = {
/* columns rows colors chars-per-pixel */
"50 32 214 2 ",
"   c #331908",
".  c #511E0D",
"X  c #580A06",
"o  c #650F00",
"O  c #641100",
"+  c #631C09",
"@  c #6B1C0A",
"#  c #6A1501",
"$  c #741C05",
"%  c #7B1D08",
"&  c #5B220E",
"*  c #4D2A17",
"=  c #562111",
"-  c #5C2417",
";  c #593616",
":  c #64210C",
">  c #6E220D",
",  c #7A2006",
"<  c #72240C",
"1  c #7C240C",
"2  c #762A0B",
"3  c #7B2A0D",
"4  c #732406",
"5  c #77360E",
"6  c #642312",
"7  c #6D2511",
"8  c #652814",
"9  c #6B2A15",
"0  c #662018",
"q  c #682419",
"w  c #642A1B",
"e  c #6C2C1A",
"r  c #742613",
"t  c #7B2513",
"y  c #742A13",
"u  c #7C2C14",
"i  c #742D1B",
"p  c #7C2D1B",
"a  c #6B321C",
"s  c #68391D",
"d  c #7D3316",
"f  c #75321C",
"g  c #7C331B",
"h  c #733B1B",
"j  c #7B3B1E",
"k  c #772F20",
"l  c #6B3C23",
"z  c #743422",
"x  c #7B3323",
"c  c #7D3A24",
"v  c #763D2B",
"b  c #7B3C29",
"n  c #763926",
"m  c #7E4021",
"M  c #7C412B",
"N  c #7B4829",
"B  c #704532",
"V  c #6B4828",
"C  c #841D0E",
"Z  c #83240C",
"A  c #8A240B",
"S  c #822B0D",
"D  c #8B2D09",
"F  c #91270F",
"G  c #952E0D",
"H  c #85330E",
"J  c #9E390F",
"K  c #92320A",
"L  c #862114",
"P  c #8E2510",
"I  c #832C14",
"U  c #8A2C14",
"Y  c #842E19",
"T  c #8C2C1B",
"R  c #82251D",
"E  c #932D16",
"W  c #932E1B",
"Q  c #982F1A",
"!  c #843115",
"~  c #8C3315",
"^  c #8E3915",
"/  c #84341C",
"(  c #8B341B",
")  c #85391D",
"_  c #8C3A1D",
"`  c #943314",
"'  c #9A3316",
"]  c #943A17",
"[  c #9A3C17",
"{  c #93351B",
"}  c #9B341C",
"|  c #943B1D",
" . c #9B3C1D",
".. c #A03E11",
"X. c #A13B1C",
"o. c #8C2C20",
"O. c #843521",
"+. c #8A3622",
"@. c #853B23",
"#. c #8C3C23",
"$. c #843D2A",
"%. c #8B3C29",
"&. c #923424",
"*. c #9C3621",
"=. c #933C23",
"-. c #9B3D23",
";. c #933E29",
":. c #9C3C2C",
">. c #A23C23",
",. c #A53F29",
"<. c #AA3D24",
"1. c #8F431E",
"2. c #89461E",
"3. c #94411E",
"4. c #9C421E",
"5. c #A3421C",
"6. c #AA4E1F",
"7. c #834324",
"8. c #8C4123",
"9. c #854927",
"0. c #85432B",
"q. c #8C432C",
"w. c #864B2B",
"e. c #8C4B2D",
"r. c #944224",
"t. c #9C4424",
"y. c #964924",
"u. c #9D4A25",
"i. c #94452B",
"p. c #9B442B",
"a. c #944A2C",
"s. c #9B4A2D",
"d. c #9D5029",
"f. c #935929",
"g. c #824531",
"h. c #814933",
"j. c #8F4B34",
"k. c #864C39",
"l. c #8F4C39",
"z. c #8A4633",
"x. c #924730",
"c. c #9C4531",
"v. c #944B32",
"b. c #9C4C33",
"n. c #974F39",
"m. c #984D38",
"M. c #845B3A",
"N. c #955235",
"B. c #9C5334",
"V. c #92523D",
"C. c #9C553B",
"Z. c #965D3B",
"A. c #A34423",
"S. c #AB4323",
"D. c #A34A25",
"F. c #AA4B24",
"G. c #A3452B",
"H. c #AA442B",
"J. c #A14D2D",
"K. c #A34C2C",
"L. c #AA4C2C",
"P. c #B4462B",
"I. c #B24C2B",
"U. c #B24825",
"Y. c #A6522E",
"T. c #AC522C",
"R. c #B3522B",
"E. c #A94430",
"W. c #A54E31",
"Q. c #A34B33",
"!. c #AA4E31",
"~. c #AB4E34",
"^. c #AD4C39",
"/. c #B14C32",
"(. c #A35234",
"). c #AD5135",
"_. c #AB5233",
"`. c #A45A36",
"'. c #AC5934",
"]. c #A4553B",
"[. c #A9543A",
"{. c #A55B3C",
"}. c #AB5A3A",
"|. c #B25533",
" X c #B95734",
".X c #B25835",
"XX c #B1573C",
"oX c #B35C3C",
"OX c #BD5B3A",
"+X c #9C6435",
"@X c #B9633C",
"#X c #B1633F",
"$X c #995D43",
"%X c #A55C44",
"&X c #AC5D42",
"*X c #AD5547",
"=X c #B95D43",
"-X c #9D6A4B",
";X c #AD6541",
":X c #AB6249",
">X c #A36C4D",
",X c #B46543",
"<X c #B96342",
"1X c #BF6D48",
"2X c #B86A44",
"3X c #B26B52",
"4X c #A27453",
"5X c #B67057",
"6X c #BE7555",
"7X c #C06641",
"8X c #C06A47",
"9X c #C27153",
"0X c #D37050",
"qX c #C28569",
/* pixels */
"- w w v M n M M t.t.s.a.z.a.b.(.p.K.).).~.K.J.a.U.D.2.(.H.P.4.f.v.y #.4 _ =.I | 3 a.y.v.O.@.@ @ e a ",
"z z 8 n M M g.v ~ ( / $.8.8.t.K.3.y.=.| | y.(.`.L.4.2._ *.>.Y.+Xb.Y ( / { s./ =.i.v.j.7.g.$.x i l.l.",
"g f 7 c l.n.$X$Xs.r.q.a.a._ ] ] _ | 1._ _ r.a.a.|.s.N.#.,.Q r.2.( U % _ _ Q.r.c.x z z 6 b k x p g x ",
"! ) ! / g f 0.b / g ) a.s.r.]  .u.K._.K.J.Y.J.u.~.b.C.r.:.( / 2 F.H.U &.I L t $ / O.O.p q.+.O./ O.R ",
"U _ ! ) O.j a.z.@./ ) 8.r.3. .4.} -.-.| >.G.K.G.s.(.i.t.( -._ O.G ` ` I / L =.| U *.E { U I , 1 7 y ",
"I ! 1 ( b.].&XC.(.B.p.| ] ^ ] -.E E { }  .>.*.' r.(.s.T.-.).t.=.X.[ s.I ( I |  .5.I.X.A.`  .S _ g g ",
"p / t / #.i.c./ ! | r.^ ^ ] t.p.>.L.).oX#X}.K.| r.Y.R.R.T..XL.} ` U r./ %.G.A.I.5.X.` E | / 7 i / @.",
"r %.%.%.;.=.b.r.( Y.@XT.u.Y.s.;._._.{.`.{.}.}.Y.y.D.R.5.6.F.|.S.K.=.x.@./ (.D [ R.D.A.{ b.i w = %.%.",
"8.d d q.v.#.#.s.t.[.~.[.(.}.y.r.Y.D. X-.,.=X[.`.3.4.s. .| p.(.p.=.r./ =.Y ;.&.;.W.G.|.Z *.1 _ 1 < / ",
"1.#.#.#.@.O.d 2 Z ` | ~ =.-.=.| |  .| >.>.| r.=.u.y.t.D.| -.u.t.S I ( U =.=.;.;.p.| =.-.p._ ( #.I / ",
"d / d r p q.a.a.} >.H.( G.| G.,.) y.| |.OX~.oXY.'.4.D.|.L.D.(.}.-.{ =.Z &.( p.p.~ =.( G.S Y 3 i.i.%.",
"q.g u p u y @.v.>.G.G.{ p.-.*.| _ [.G.D.G.L.T.^ 5.4.5.T.G.A.H.L._.K.G.| -.=.G.E.~ p.( | $ =./ #.+.Y ",
"f c q.%.O.y y g =.i.^ 8.8.s._ | a.s._.=.| |.D.t.5.5.L.T.A.A.A. . .F.F.|.L.L.t. .s.p.( / #.[.m.#.#.#.",
". v l.0.O.a.n.%.s.(.8.a.a.(.=.r.W._ t.r.u.oX'.8XF.L.'.'.T.Y.T.G. .F.D.|. .A.~ ` p._ i.a.m._ #.#.c.b.",
"* B k.$.@.m.C.l.`.[.s.a.y.r.{ t.u.] ^ ! ! / ^ =.t.3.u.Y.s.t.G.G.I.R.F.F.[ ' ` ' #.^ i.i.q.y y Y Y u ",
"  * l g.v.C.n.j.XXXXoXp.p.{ -.H.t..Xt.^ ^ r.(.#.T.3.t.(.s._ =.G.6.6. XF.I. .A.X.p.#.p 5 q.C.%.< p r ",
"x.u > f N.{.( / 5 f.Z.h w.m m N.r.^ r.}.<X~ r.d.OXF.F.F.t.#X3Xz.S.I.0XA. . .t.K.C T < G.Q E.g N A.} ",
"> g e.w.q.O.3 +.' ,.>.T p.*.>.>. .<.<.<.<.X.H.A..X4.T.'.3.s.:X3XI.| ` ] A.|.t.| F ' ~ ] ' X.( 9.t.=.",
"y y g g 0.v.#.#.} >.E A W P S.' H.I.P.<.} !.E.].(._ }._.4.s.}.6X_.[. .Y. . .] A.I.F.5.K 5.>.#.d =.{ ",
"f $.q.g g #.Y ;.=.c.O.j / 2 #XY.'.d.Y.B.8.Z.w.>X:XB.,XW.d.1X2X2X9X9X(.<XoX'..XD.D.@X@Xu.] Y / c @.q.",
": f 0.c O.%.Y +.g 8.g j j 5 ;X`.d.u.(.(.) e.j Z.$X@./ y ( _.u.u.`.}.s.s.oX!.oXG.2.s.r.#.@.g.k 0 s l ",
"8 8 y @ t +.Y +.U | U Y -.I -.U  .F./.*.U -.+.( v.@./ c.(.u.4.T.3.t.J.^ =.S =.Z 7.@.u / 0.k.q X t t ",
"M M b r o o # +.>.H.G.-.^.&.{ } >.G.X.Q >.-.G.( ) @.t c.K.H 4.D.7XT.D.| *.=.I t g ;.Q.;.%.9 r R o.&.",
"N 9 X @ O.=.t I S 3.b._ s.+.( ^.v.) $ / (.) B.y.i.Q.$ % U S '.Y.5. .L.K.1 t t *Xm.T Q A ;Xa.=.L ; V ",
"a 8 b e $.o.T C ( _ 2 ) d 4 +.=.-.! #._ c.r.B.8.Y.| -.A T / N.$XC.{./ a.s.U { % r.r.y.I Y c.:.o.o.R ",
"9 e b k O.O.( -.{ ;.| b.s.( :.G.Q.u ! s.].a.a.b.^ ] L.G.W.s.3XqXC.b.i.s.Q.W G.G.G.W.b.a.m.v.0.x b g ",
"p i k O.i / / s.L ( Y +.( L ( L / i.i.=.#.].[._ ^ ~ t.-.-./ x.%XO.< ].Y I U 1 >.-.Q.#.a.0.s M.M.e.9.",
"$.i 7 k i q.p q.%.$.p Y O.;.c.;.8.a.m.}.=.s.W.[.[.*.{ { #.I I O.r &Xp.b.Q.1 =XU { W.=.a.7.h -X4Xt.*.",
"x r < p i 0.y c v a 7 7 g v.b.v.q.a.r.m./ r.-.G.G._ ( r.p.;.&.;.+.O.Q.;.c.c.p.p.! b.;.a.r.O.].m.` E ",
"+ @ r y < g 8 f a & & + y 7.g g _ i.#.! t a.i.t Y _ #.m.a.i.=.-.q.y 7 p / / t _ ) i.I Y &.:.G.L ) d ",
"+ + g y y x a e g.z $.@.=.i.( i.[.( 8.(.(.#.r.b.#.c.x.C.e.m.+.W %XO.a.%.d %X< v.i.;.+.+.=.r.b.G.q.g ",
"x f 0.u a.v.$.w x 7 O.Y T ( U K.( +.(.s.i./ a.a.%.x.j q.7.].=.U $.%X$.e.y C.v.@.I Y b.b.#.g d N.%.p "
};
