/* XPM */
static char *_f30e53818d544de9905dc814bcffa8fWSSjLXYcOo1IwSUw[] = {
/* columns rows colors chars-per-pixel */
"43 50 220 2 ",
"   c #000000",
".  c #090606",
"X  c #040709",
"o  c #060A0B",
"O  c #0A0C0D",
"+  c #120D0C",
"@  c #190D0D",
"#  c #070D10",
"$  c #090E11",
"%  c #130F10",
"&  c #0B1214",
"*  c #0E1419",
"=  c #151212",
"-  c #1A1615",
";  c #1D1A15",
":  c #11161A",
">  c #131A1D",
",  c #1D1C1A",
"<  c #2A0E0C",
"1  c #231514",
"2  c #281A14",
"3  c #231C1B",
"4  c #2A1B19",
"5  c #341515",
"6  c #391A17",
"7  c #341C1A",
"8  c #27221D",
"9  c #33231E",
"0  c #171D21",
"q  c #191E21",
"w  c #2C1E22",
"e  c #1A2225",
"r  c #1E2528",
"t  c #252321",
"y  c #2C2522",
"u  c #2C2A25",
"i  c #252A2E",
"p  c #2D2D29",
"a  c #3A2624",
"s  c #332B24",
"d  c #332C29",
"f  c #373126",
"g  c #33312B",
"h  c #3A352C",
"j  c #3E3A2F",
"k  c #343632",
"l  c #383737",
"z  c #3B3B33",
"x  c #451C1A",
"c  c #44231F",
"v  c #462A27",
"b  c #522B29",
"n  c #47362A",
"m  c #4B322E",
"M  c #51352E",
"N  c #5F2E32",
"B  c #473A36",
"V  c #543432",
"C  c #5A3A36",
"Z  c #543D3B",
"A  c #692927",
"S  c #683B38",
"D  c #733935",
"F  c #3D4038",
"G  c #434238",
"H  c #49433B",
"J  c #554630",
"K  c #58473B",
"L  c #69453E",
"P  c #75463F",
"I  c #383E42",
"U  c #753E43",
"Y  c #3D484E",
"T  c #4B4948",
"R  c #5A4743",
"E  c #534B43",
"W  c #5C594F",
"Q  c #694A46",
"!  c #744846",
"~  c #6A564B",
"^  c #795649",
"/  c #6C5B56",
"(  c #795A56",
")  c #68685B",
"_  c #79645D",
"`  c #5B5D66",
"'  c #5B6973",
"]  c #696E68",
"[  c #786A66",
"{  c #6D7375",
"}  c #84302F",
"|  c #AA3A30",
" . c #CA3937",
".. c #B2413B",
"X. c #8D4E4B",
"o. c #89534C",
"O. c #825855",
"+. c #885B55",
"@. c #955B55",
"#. c #A64944",
"$. c #B55249",
"%. c #836F50",
"&. c #89645D",
"*. c #99645D",
"=. c #A8655D",
"-. c #BA6256",
";. c #8B6C65",
":. c #886968",
">. c #996965",
",. c #8C706D",
"<. c #9A7368",
"1. c #867672",
"2. c #9A7A75",
"3. c #A56D67",
"4. c #B26C67",
"5. c #A3736C",
"6. c #AB736C",
"7. c #B3756E",
"8. c #BA766E",
"9. c #A67A76",
"0. c #B77D78",
"q. c #C74442",
"w. c #C27E7C",
"e. c #948A75",
"r. c #97847B",
"t. c #A9857B",
"y. c #B6847B",
"u. c #BE847D",
"i. c #AFA07A",
"p. c #C3857D",
"a. c #C7877C",
"s. c #D5857B",
"d. c #6B7A83",
"f. c #727D81",
"g. c #817B81",
"h. c #7B8891",
"j. c #878686",
"k. c #8E8D91",
"l. c #A88882",
"z. c #B88B85",
"x. c #A89187",
"c. c #AF928D",
"v. c #B99D92",
"b. c #BBA39A",
"n. c #8C9AA3",
"m. c #B79DA3",
"M. c #8EA1AF",
"N. c #93A2AC",
"B. c #99A5AA",
"V. c #98A9B5",
"C. c #ADAFB2",
"Z. c #C48982",
"A. c #CB8D84",
"S. c #C28D8A",
"D. c #D18E88",
"F. c #C79489",
"G. c #CC948B",
"H. c #D3948C",
"J. c #D9978E",
"K. c #CA9D98",
"L. c #D59A92",
"P. c #D79C97",
"I. c #DB9C94",
"U. c #F08E87",
"Y. c #C5A69B",
"T. c #D9A296",
"R. c #D3A59A",
"E. c #DCA39A",
"W. c #DCA99C",
"Q. c #E5A69E",
"!. c #E1AA9E",
"~. c #CAADA2",
"^. c #DCADA2",
"/. c #D3AEAC",
"(. c #CFB2A5",
"). c #DAB4A6",
"_. c #D9B6A9",
"`. c #DDB6AA",
"'. c #DABBB5",
"]. c #E2ADA3",
"[. c #E9ADA3",
"{. c #E4B1A4",
"}. c #EBB4A5",
"|. c #E4B4A9",
" X c #ECB6AA",
".X c #E4BAAD",
"XX c #ECBBAD",
"oX c #F1BDAE",
"OX c #E8BDB2",
"+X c #F2BDB1",
"@X c #DFC1B1",
"#X c #ECC1B4",
"$X c #E4C6B8",
"%X c #EAC9BC",
"&X c #F4C2B5",
"*X c #F4C4BA",
"=X c #F6C9BC",
"-X c #F9CBBE",
";X c #9CB2C0",
":X c #A4B9C5",
">X c #C5BEC0",
",X c #B4CBD5",
"<X c #BDD0D8",
"1X c #CFD9DD",
"2X c #ECCCC3",
"3X c #F5CDC3",
"4X c #F8CDC3",
"5X c #EBD1C6",
"6X c #F9D1C5",
"7X c #FBD5CB",
"8X c #FBD8CE",
"9X c #FBDCD4",
"0X c #FBDFD9",
"qX c #FBE0D7",
"wX c #FCE2DB",
"eX c #CADAE1",
"rX c #D1DCE1",
"tX c #D5E9EF",
"yX c #E5E9EA",
"uX c #EFF7F8",
/* pixels */
"                                                                                      ",
"                                          X                                           ",
"                                  - B [ e.x.r.e.1._ E s O                             ",
"                              3 [ ~.$X5X5X%X$X@X@X`.`.(.x.W =                         ",
"                            h b.5X5X%X$X@X@X.X)._.`..X@X).(.x.H X                     ",
"                          z b.$X_._.#X#X&X&X@X.X).|..X|.W.L.F.y.~ .                   ",
"                        u v.(.t.y.XX-X7X6X-X=X@X{..X{.{.W.R.G.a.5.Z .                 ",
"                      ; e.b.t.t.@XqXwXwXwXqX8X-X=X&X&X}.{.{.#X$XR.5.E                 ",
"                    . / c.2.t.).8X9XqXqX9X9X0X9X8X6X4X-X-X4X8X0X0X'.v.j               ",
"                    h r.;.O.z.$X7X7X9X7X9X7X9X9X8X7X6X4X3X3X2X2XqX9XR.r.=             ",
"                  X / :.Q ,.(.%X6X6X7X6X6X7X7X6X7X=X).Y.).3X/.;.'.9X|.e.E             ",
"                  - :.Q / l.~..X=X-X-X-X-X-X-X4X-X#X/ / 2.x.x.Z ;.3X#X*.:.O           ",
"                  d ( ( ;.l.R..XXXoX&X&X+X&X&X&X&X^._ W F z E J t.).#Xt.;.s           ",
"                  B ( O.;.l.R.|.XXoXXX X}.}. XoX{.F.;.] p z H J / K t.t.:.B           ",
"                  ~ ,.( :.y.T.].{.}.}.}.[.[.}.{.T.z._ ) t g E J J u a 2.( B           ",
"              + ! z.9.( +.a.W.{.{.{.{.}.oX+X&X&X].2.) e.{ ) G h g y = :.( s           ",
"              5 ..s.y.o.<.L.W.W.!.}.XX&X&X*X4X+X|.l.v.~.j.[ j u p , O ~ ~ 1           ",
"              5 ..-.7.@.y.W.T.T.!.{.^.R.K.Y.].].E.G.K.P.l.] j h j 8 + M V +           ",
"              < ..-.3.t.a.{.T.F.u.<.&.! C C &.5.6.>.&.0.;.H z F z k , c a .           ",
"              @ $.| #.a.W.!.T.u.*.! S S b 6 v N S S m R E H G F h p , v y X           ",
"              O =.q.s.{.!.!.E.A.*.L Q C U V x x x 7 u l B R Q Z f 8 + m ( s           ",
"              . e.s.!.{.W.!.!.W.F.y.*.B Z S N b 5 w y 3 y D | A 5 . + P @.4           ",
"                ^ !.T.W.L.T.{.#X{.F.6.$.@.@.X.! v a q 1 5 $.U. .x . 9 X.D             ",
"                K T.s.{.G.A.T. XOX^.g.w.>.@.>.>.o.C - , 5 } q.| 5 % P D 5             ",
"                3 K.|.E.A.Z.A.H.P.Q.P.0.6.Z.H.D.7.Q = 8 y b c c @ 4 ^ S .             ",
"                  4 >.L.a.u.0.7.g.A.D.P.P.P.P.I.y.C , , y K n 9 8 y R v               ",
"                    Z A.a.p.0.3.w.w.D.E.].J.L.[.y.1 t z F K K f p s Q =               ",
"                    R D.a.a.p.0.w.s.I.I.D.Z.P.[.y.3 u W G u s f d B Z                 ",
"                    Q H.a.a.p.p.D.L.I.J.w.w.Q.].a.G G G p g 8 J h R 9                 ",
"                    ( A.a.a.p.p.D.J.P.J.D.4.X.3.t.~ W F , F , F 8 4 .                 ",
"                  y 9.8.a.a.w.w.Z.H.J.P.J.w.! m M n F u t g g g 3 .                   ",
"              O , B./.=.4.8.w.w.g.S.S.S.S.z.<.L 1 8 F p , , t f a                     ",
"            o * I yX5X>.@.-.3.6.0.>.O.O.>.l.9.! w f K h 3 = H K v                     ",
"            o $ I rXuXc.U X.=.3.3.Q v v S U S N m e.i.^ 2 f ^ M +                     ",
"          o o X $ f.uXrX( L @.3.+.S ! ! S X.U 5 2 %.^ n 9 %.<.m                       ",
"        X $ o o o 0 n.tXC.Q S o.O.o.+.o.S b b 5 2 J J ; 9 *.^ =                       ",
"        X $ o o o o e N.tXC.E B C ^ >.6.*.U 1 . u f f , = s -                         ",
"      X $ $ $ o # # o r n.<XB.T 4 m O.>.>.>.C d F F G , + % .                         ",
"    . $ : $ $ o o o X o e n.,XB.T t w m Z U C w 8 F u 8 =                             ",
"  O * $ $ & $ o o o o X X r h.:XM.` t % - 3 4 O + ; n [ i                             ",
"& * ; > # # & o o o o o o X e d.;XM.' I w 3 q w y m / >X' $ $ X                       ",
"> * * & & o # o o o o o X X X 0 d.M.N.f.` T m m m U g.yX:X: : * $ X                   ",
"& & # & & # o & # o o o X X X X 0 ' M.V.V.N.k.{ :._ m.uXyXH # 0 * $ X                 ",
"& * * & & & # o o o o o o X X X X * ' M.:X:XeXeXrXk.:.m.yXg.o : > & $ $               ",
"* * * & & # & o o # o o o o o X X X 0 d.V.:XeXtX1XR N U :.g.: * q > $ $ O             ",
"& * * & & & & o X o # o o o o o X X X i h.:X<XtXk.4 7 N U [ i # 0 e * & $ o           ",
"* & & & & # & # o X o o o o o X X o o X Y ;X,X:Xl . = a S :.k X & e e * $ $ $         ",
"& & & & O & # # o o o # o X o o X o o X o d.,Xd.O + @ 1 6 U i   o 0 e 0 & $ O X       ",
"& # # O & o O # o o X O & X o o o o o o o * f.h.T , + + 4 a , X X $ e e > & X o       ",
"# & O O # & & o & o X o # o O o o O O o O o 0 n.n.` 3 $ 1 7 8 o X o > e > & X X X     "
};
