/* XPM */
static char *_125f60f31504699ecb7baf01c02b44ehXZRkcVVvvQMH9pQ[] = {
/* columns rows colors chars-per-pixel */
"43 50 222 2 ",
"   c #000101",
".  c #0B0505",
"X  c #03060A",
"o  c #040A0D",
"O  c #0C0A09",
"+  c #140A09",
"@  c #15120C",
"#  c #1B130D",
"$  c #060C11",
"%  c #090D13",
"&  c #170D10",
"*  c #0A1115",
"=  c #0B1517",
"-  c #0C1419",
";  c #151311",
":  c #1C1413",
">  c #1A1915",
",  c #111A1D",
"<  c #1C1B1A",
"1  c #260C0B",
"2  c #330D0B",
"3  c #29130E",
"4  c #241413",
"5  c #291913",
"6  c #22191B",
"7  c #2B1B1A",
"8  c #381817",
"9  c #24221B",
"0  c #2B241C",
"q  c #34221D",
"w  c #3A221F",
"e  c #332B1E",
"r  c #141D21",
"t  c #192226",
"y  c #242525",
"u  c #2A2621",
"i  c #2B2A24",
"p  c #362826",
"a  c #332C24",
"s  c #34332C",
"d  c #3B3529",
"f  c #2D3134",
"g  c #353631",
"h  c #363637",
"j  c #3D3D33",
"k  c #451816",
"l  c #731F1E",
"z  c #45241F",
"x  c #47341A",
"c  c #492825",
"v  c #552929",
"b  c #483529",
"n  c #52322C",
"m  c #59352A",
"M  c #443B34",
"N  c #493A35",
"B  c #543432",
"V  c #583B38",
"C  c #6F3230",
"Z  c #663936",
"A  c #6A3A34",
"S  c #49473B",
"D  c #594B31",
"F  c #584838",
"G  c #68443D",
"H  c #75443D",
"J  c #725C3F",
"K  c #383D40",
"L  c #773C42",
"P  c #3A464D",
"I  c #4A4746",
"U  c #574643",
"Y  c #5C594E",
"T  c #694945",
"R  c #744543",
"E  c #744C49",
"W  c #6A544B",
"Q  c #7A544D",
"!  c #6C5E57",
"~  c #7A5A55",
"^  c #68685B",
"/  c #78655C",
"(  c #5B5D66",
")  c #5B6974",
"_  c #776964",
"`  c #6D7270",
"'  c #852C2B",
"]  c #B0392F",
"[  c #A83F3C",
"{  c #CB3634",
"}  c #A14B3F",
"|  c #884B4B",
" . c #87534B",
".. c #93564C",
"X. c #865A55",
"o. c #975B56",
"O. c #B15049",
"+. c #84704F",
"@. c #87635D",
"#. c #9B635D",
"$. c #94685D",
"%. c #A8655D",
"&. c #B76458",
"*. c #8C6C65",
"=. c #876969",
"-. c #8C6F6D",
";. c #996865",
":. c #977268",
">. c #877773",
",. c #9B7973",
"<. c #A56D67",
"1. c #A7756B",
"2. c #AB716A",
"3. c #B7766D",
"4. c #A67974",
"5. c #B67B74",
"6. c #BC7E7A",
"7. c #C44943",
"8. c #C47D7A",
"9. c #958B76",
"0. c #98847C",
"q. c #AB857C",
"w. c #B5837A",
"e. c #BC837C",
"r. c #B0A17B",
"t. c #C3857C",
"y. c #CB877C",
"u. c #C4897F",
"i. c #D6867C",
"p. c #687781",
"a. c #737E82",
"s. c #827C82",
"d. c #78838A",
"f. c #7D8E9A",
"g. c #888787",
"h. c #8C8C93",
"j. c #A88A83",
"k. c #B88983",
"l. c #A99288",
"z. c #B29389",
"x. c #AF9192",
"c. c #BD9D94",
"v. c #B6A295",
"b. c #8B99A2",
"n. c #9199A2",
"m. c #B89EA4",
"M. c #94A3AD",
"N. c #9AA6AB",
"B. c #94A6B0",
"V. c #98A9B4",
"C. c #AEB0B3",
"Z. c #C38C83",
"A. c #C48A87",
"S. c #CC8D84",
"D. c #D28E8A",
"F. c #CB9186",
"G. c #C8958A",
"H. c #CB958C",
"J. c #D2948D",
"K. c #D7968D",
"L. c #CB9D99",
"P. c #D59C93",
"I. c #DB9C95",
"U. c #DD9F9A",
"Y. c #F08F88",
"T. c #C5A39A",
"R. c #D8A396",
"E. c #D4A39B",
"W. c #DCA39A",
"Q. c #DDA99D",
"!. c #E3A99E",
"~. c #C3ACA1",
"^. c #D2ACA4",
"/. c #DDADA2",
"(. c #D5B4A6",
"). c #DCB3A4",
"_. c #D5B7AF",
"`. c #DBB5A9",
"'. c #DEBAAD",
"]. c #E2ADA3",
"[. c #E8ADA4",
"{. c #E4B2A4",
"}. c #EBB4A6",
"|. c #E5B3AA",
" X c #ECB7AB",
".X c #E4BAAC",
"XX c #EDBBAE",
"oX c #F1BEAF",
"OX c #EABDB1",
"+X c #F2BEB3",
"@X c #E4C5B7",
"#X c #EDC2B4",
"$X c #EACABD",
"%X c #F4C3B4",
"&X c #F4C5BA",
"*X c #F6CABC",
"=X c #F9CBBE",
"-X c #9DB3C1",
";X c #A5BAC6",
":X c #C6BFC1",
">X c #AEC2CD",
",X c #B5CCD6",
"<X c #BED1D9",
"1X c #EECCC5",
"2X c #F5CDC4",
"3X c #F9CEC3",
"4X c #EDD2C4",
"5X c #F7D0C4",
"6X c #F9D1C5",
"7X c #FAD5CA",
"8X c #FBD9CE",
"9X c #E2D7D7",
"0X c #FBDCD4",
"qX c #FBDFD9",
"wX c #FBE0D7",
"eX c #FBE2DB",
"rX c #C7DAE2",
"tX c #D1DDE2",
"yX c #D7E7EB",
"uX c #D6EAEF",
"iX c #E6EAEB",
"pX c #F0F7F8",
/* pixels */
"                                                                                      ",
"                                                                                      ",
"                              u U / >.0.l.l.9./ M @                                   ",
"                        O W l.(.'.'.'.@X@X4X4X$X$X~._ <                               ",
"                      S z.(.).'.@X).'.(..X@X@X$X$X$X4Xv.a                             ",
"                    W k.Z.H.)..X.X.X).)..X#X#X#X$X(.'.$X~.s                           ",
"                  V 1.e.P.R.Q.{..X.X{.#X%X6X6X8X=X#Xw.q.(.v.u                         ",
"                S q.E.#X#X).[. X%X%X*X6X8XeXeXeXeXwX@Xq.q.T.0.@                       ",
"              s c.@XwXqX0X2X*X=X6X7X8XwXwXwXwXwXwXwX8X(.0.4.z.!                       ",
"            O ,.^.0XeX1X1X2X2X3X7X7X8X0X0X8X8X8X8X8X8X$Xk./ $.0.d                     ",
"            I q.'.wX_.-._.2X(.T.).3X7X7X7X7X=X6X7X6X6X$X(.-.G *.!                     ",
"            *.:.#X5X*.N l.l.,.^ !  X6X6X=X=X=X=X=X*X*X@X^.j.W W _ &                   ",
"          u *.4.OX/.q.D S j j ^ ~ /.&X&X%X%X%X%X%XoX#X|.^.j.*.Q ~ u                   ",
"          M @.q.q.U W x S j i ^ -.G.{.XX X}.}.oXXXXXXX.XE.j.=.X.~ N                   ",
"          M X.,.q 9 D D S s 9 ^ / Z.W.[.[.[.}.}.}.}.}.{.R.w.*.~ :.Y                   ",
"          p ~ =.+ 9 i d S ^ ` 9.! ,.].&X%X%XoX}.{.{.{.{.Q.S.X.Q 4.k.E .               ",
"          & W T X > i 9 b ` g.T.c.j.|.*X3X&X+X+XOX}.!.!.Q.P.<.X.5.i.} 2               ",
"          X B v . 9 d d d ^ l.E.E.G.U.].].T.L.^.].|./.R.R.Q.w.$.3.&.{ 2               ",
"            q c ; s g j g S *.6.X.<.2.4.;.V V R o.1.k.G.R.{.u.w.&.&.} 1               ",
"            7 z ; i s d S S U V b A A v k 2 c V A R ;.e.R.{.Q.u.} ] O.+               ",
"          u Q n X 9 a F E U h h u 8 k 8 k m L N G T $.F.R.!.{.Q.i.7.%.X               ",
"          4 o.H .   1 l [ l 7 : 6 7 2 c v C V N ;.5.F.Q.{.!.R.).!.Y.1.                ",
"            C ..8 . 2 { Y.O.2 ; > 7 c H | ..o.#.2.H.|.OX}.R.R.Q.I.[.~                 ",
"          . 2 C G . 2 [ 7.' 1 ; @ B  .<.<.o.%.<.s./.XXXXR.F.H.{.D.K.N                 ",
"              A Q 4 + 8 k v 5 > @ R 8.K.J.A.8.s.Y.[.[.Y.S.t.F.Q.|.L.:                 ",
"              c F 9 4 q b D 9 > > B 6.Y.U.U.Y.I.D.D.s.3.8.8.y.J.;.4                   ",
"              . T a 9 e D F j j < # s.}.K.I.!.U.J.8.5.2.w.u.y.F.U                     ",
"                V N i i e 0 j Y 9 : k.[.U.S.D.I.I.D.6.5.u.u.y.F.V                     ",
"                7 U a D 9 s i I j d A.|.U.8.y.I.U.P.A.Z.u.y.y.J.T                     ",
"                  4 0 j > s > d W ! w.<.| 2.D.K.I.P.H.t.t.S.S.S.~                     ",
"                    > i i i > u M b B c L 8.I.P.I.J.Z.w.t.y.t.3.4.y                   ",
"                    w i 9 > > i s 3 + U 4.A.x.A.A.G.u.1.5.5.&.%.`.N.-                 ",
"                    p Z M + # d D e # E 4.w.;.X.X.;.k.2.%.%...#.9XiXh %               ",
"                    O m W q # J r.9.x m C A B c c Z <.2.%. .| z.pXtXh X X             ",
"                      c <.+.0 x Q 9.4 2 L | C L R G X.<...A @.tXpXa.o                 ",
"                      . Q $.0 # D x 4 8 v v Z  ...Q X. .G W C.uXb.- X     X           ",
"                        # w . @ a a 9   & Z ;.2.;.E Z n U N.tXB.t   X   X X           ",
"                          . . ; j h h i B ;.<.;.X.n 4 I N.rXM.t   X   X   X o         ",
"                            O 6 y s u 6 V L V c 7 : I V.,Xb.,             X $ o       ",
"                            t >.b 4 . . : 4 & O < ( B.;Xf.,       X   X X o X X %     ",
"                        X X ` :XW p 7 6 r 6 r h ` M.V.d.,       X   X   X X X * * % o ",
"                    X $ % % C.yXj.V n p c I ( d.B.V.p.,   X   X         X   X o % % % ",
"                  X $ = X K pXpXm.=.=.s.h.b.V.V.M.) =             X X X   X o X X X o ",
"                X o * *   g.9Xm.-.h.tXrX<X,X;XM.) $       X         X   X o o o $ $ o ",
"              X X = , $ o a.-.L v U tXuXrX>XV.p.,           X X X X     X X o o $ $ $ ",
"          X X X $ r =   y _ L B 8 1 n.yX,X;Xf.t   X       X     X   X X X X o o o $ $ ",
"          X X $ r r X   K =.C w O   f >X,X-XP         X         X     X X X X $ o o o ",
"        X   $ - r - X X r L k 1 . . X p.,X) X   X X     X     X       X X X X X o o o ",
"          X * , , o     : q 4 . . < K h.p.$   X     X   X   X       X   X X X X X X X ",
"        X o = t =       6 7 # . 4 ( b.b.r X     X X     X   X   X X   X X X X   X X X "
};
