/* XPM */
static char *_b52d7647bc34eaba353fad0de9f47571cGGYbNli6jT8N3S[] = {
/* columns rows colors chars-per-pixel */
"50 50 234 2 ",
"   c #010202",
".  c #010905",
"X  c #03050A",
"o  c #09050C",
"O  c #010C0B",
"+  c #090709",
"@  c #000D12",
"#  c #000610",
"$  c #001313",
"%  c #03191B",
"&  c #1C1A1B",
"*  c #171818",
"=  c #10120E",
"-  c #0F231E",
";  c #021D22",
":  c #002727",
">  c #003436",
",  c #172D31",
"<  c #2C2C2C",
"1  c #282625",
"2  c #322C2A",
"3  c #2D2C30",
"4  c #312F32",
"5  c #3A3D3D",
"6  c #393935",
"7  c #2F302B",
"8  c #403F3D",
"9  c #404139",
"0  c #003C42",
"q  c #383D42",
"w  c #084048",
"e  c #024C52",
"r  c #02535A",
"t  c #04575C",
"y  c #184E50",
"u  c #335352",
"i  c #007E7B",
"p  c #077379",
"a  c #196E71",
"s  c #267679",
"d  c #474A47",
"f  c #5C5859",
"g  c #4E5151",
"h  c #55605C",
"j  c #495F63",
"k  c #5A5F63",
"l  c #635F60",
"z  c #496F72",
"x  c #737874",
"c  c #6C6C6D",
"v  c #00817D",
"b  c #7B827B",
"n  c #80827F",
"m  c #007C84",
"M  c #007782",
"N  c #7F7F81",
"B  c #058387",
"V  c #068D97",
"C  c #03959C",
"Z  c #0C949C",
"A  c #00999E",
"S  c #009493",
"D  c #149196",
"F  c #2E8E95",
"G  c #078FA4",
"H  c #0D94A4",
"J  c #019BA4",
"K  c #0599A6",
"L  c #1297A1",
"P  c #089DB2",
"I  c #138DA4",
"U  c #2B99A6",
"Y  c #01A1A6",
"T  c #02A3AA",
"R  c #09A4A8",
"E  c #10A1A5",
"W  c #06ABB7",
"Q  c #06B5BB",
"!  c #18B5BD",
"~  c #26B5BB",
"^  c #6D8D8C",
"/  c #6C9BA1",
"(  c #4CA4A8",
")  c #02BAC2",
"_  c #17B9C4",
"`  c #33B8C5",
"'  c #4EBDC6",
"]  c #04C3C6",
"[  c #14C6CD",
"{  c #17C5CD",
"}  c #12C9D3",
"|  c #19C8D2",
" . c #08D6D8",
".. c #19D7DB",
"X. c #0EC9D5",
"o. c #37C8CB",
"O. c #31CDDA",
"+. c #26D6DC",
"@. c #3ADCDD",
"#. c #1ADCE5",
"$. c #14DDEA",
"%. c #1CDDEA",
"&. c #1FD6E2",
"*. c #0CD9E1",
"=. c #22DAE5",
"-. c #25D8E5",
";. c #38DCE4",
":. c #0DE5EB",
">. c #09E8EE",
",. c #13E5EC",
"<. c #1CE3EB",
"1. c #19E7EA",
"2. c #0BE4F2",
"3. c #01ECF5",
"4. c #0DECF4",
"5. c #02ECFA",
"6. c #09EAF8",
"7. c #14E5F3",
"8. c #1BE5F2",
"9. c #13EBF3",
"0. c #1CEBF3",
"q. c #13EBFA",
"w. c #19EEFD",
"e. c #04F2F6",
"r. c #0BF1F5",
"t. c #02F5FD",
"y. c #0BF4FC",
"u. c #03F9FD",
"i. c #0BF9FD",
"p. c #15F3F7",
"a. c #13F4FA",
"s. c #1BF4FA",
"d. c #18F4F5",
"f. c #1DF4ED",
"g. c #29EBED",
"h. c #27E5EA",
"j. c #37E3E8",
"k. c #25E5F3",
"l. c #24EAF3",
"z. c #2BE9F4",
"x. c #28E8F6",
"c. c #35E9F5",
"v. c #25F3F8",
"b. c #33F5FE",
"n. c #42C9CA",
"m. c #47D4D9",
"M. c #55D6DA",
"N. c #57CACF",
"B. c #6FD5DB",
"V. c #49DDE7",
"C. c #51DDE9",
"Z. c #46E2E7",
"A. c #56E3E5",
"S. c #4BECF2",
"D. c #53EEF5",
"F. c #5FEEF2",
"G. c #4AF5FC",
"H. c #5EFEFF",
"J. c #58F3FB",
"K. c #64FDFF",
"L. c #6CFDFF",
"P. c #68F5FA",
"I. c #74FDFF",
"U. c #7DFEFE",
"Y. c #76F4FB",
"T. c #72EEF5",
"R. c #928F8E",
"E. c #8D9090",
"W. c #A39E9B",
"Q. c #8BABAD",
"!. c #ABABAB",
"~. c #A5A7A6",
"^. c #B0ADAF",
"/. c #B1B4AE",
"(. c #ACB9B8",
"). c #B4B5B3",
"_. c #BABAB6",
"`. c #B9BAB8",
"'. c #AEB5AE",
"]. c #C2BEBD",
"[. c #BEC2BB",
"{. c #BFBCC3",
"}. c #BFC3C6",
"|. c #82FCFF",
" X c #8BFCFF",
".X c #87F4F6",
"XX c #9EFEFF",
"oX c #93FBFA",
"OX c #8EF1EC",
"+X c #A4FEFF",
"@X c #ABFFFF",
"#X c #A6F6FA",
"$X c #B2FFFE",
"%X c #B7FBFF",
"&X c #ABEDEA",
"*X c #87D6DA",
"=X c #CCCCCD",
"-X c #C7C6C7",
";X c #DCDBDC",
":X c #D7D6D5",
">X c #E2DEDF",
",X c #D6E0DF",
"<X c #D9DDE1",
"1X c #E3DEE3",
"2X c #DAE2E4",
"3X c #C3FFFF",
"4X c #CDFFFF",
"5X c #D4FFFF",
"6X c #DCFFFF",
"7X c #CFE9EE",
"8X c #E5E6EA",
"9X c #EBF1ED",
"0X c #E4FFFF",
"qX c #EBFFFF",
"wX c #EBF4F5",
"eX c #F3F4F4",
"rX c #F9F4F4",
"tX c #FCFBF6",
"yX c #FBF6FB",
"uX c #F5FDFD",
"iX c #FEFAFD",
"pX c #FBFFFF",
"aX c #F9FFFE",
"sX c #FFFFFD",
"dX c #FEFFFD",
"fX c #FFFDFF",
"gX c #FCFFFF",
"hX c #FFFEFF",
"jX c #FEFFFF",
"kX c white",
"lX c #FEFEFF",
"zX c #FDFDFD",
"xX c #FEFEFD",
"cX c #F5F8F7",
/* pixels */
"fXfXfXpXfXdXtXdXpXuXfXfXfXpXfXfXdXtXpXuXtXdXdXiXiXfXpXzXyXtXtXdXtXdXfXpXpXpXuXpXfXfXfXdXtXdXfXfXfXfX",
"fXfXpXpXdXdXdXdXpXpXfXfXpXfXpXfXyXdXcXpXdXyXtXfXfXfXpXfXfXfXdXdXtXdXfXfXfXpXpXpXfXfXfXtXdXdXfXfXfXfX",
"fXfXfXfXdXdXdXdXpXpXfXfXfXfXfXfXfXyX2X2X;X1X1X>X;X>X,X,X<X1X;X;XeXfXfXfXfXfXzXtXfXfXfXfXfXfXfXfXfXfX",
"fXfXfXfXdXdXdXdXdXfXfXfXfXpXpXzXfX{.  o o o         . O X + +   !.fXtXdXyXfXfXdXdXdXfXfXfXfXfXfXfXfX",
"fXfXfXfXfXfXfXfXfXfXdXyXfXcXfXcXfX}.    o + +         .   X     !.zXtXtXdXtXpXfXdXdXdXpXpXpXfXfXfXfX",
"fXfXfXfXfXfXpXpXzXfXfXfXdXdXcXyXpX}.+                           ~.fXtXtXdXfXfXfXdXtXdXpXpXfXfXdXfXfX",
"dXdXfXfXfXfXpXfXfXfXyXdXdXtXc d d c _._.].`._.)._._.`.`.`._._.[.x d d f rXzXpXfXdXdXdXpXpXpXdXdXfXfX",
"dXdXfXfXfXpXfXfXdXfXdXfXtXtX1     u zXuXaXuXaXaXuXuXpXuXpXtXcXzXh   O * 8XzXuXfXfXdXdXdXfXfXdXzXfXfX",
"dXtXfXdXfXfXpXfXfXdXdXzXiXfX1     u cX0X0X0XqXqXqXqX0XqXqXuXcXuXf X # ; cXiXfXfXfXdXfXdXfXdXdXdXfXfX",
"dXdXzXfXfXfXfXdXdXpX:X~.^.^.c f g ^ @X@X+X#XXX+X+X+XXX@X%X5X5X5X( e r y Q.).!.-XdXdXfXfXyXfXtXzXfXfX",
"tXfXfXpXfXpXyXfXtXdXx     o 8XcXqX%XZ.<.<.h.h.g.k.k.k.h.A..XOX.XA.m.m.N.%     l dXcXfXzXfXdXfXfXfXfX",
"fXtXdXfXfXfXfXfXzXuXx   X   2X0X0X#X<.u.u.u.t.y.y.6.p.1.c.I.I.I.c...&.o.: .   h pXcXfXfXfXfXfXfXfXfX",
"fXdXfXfXpXfXfXrX9XdXb   o - 7X6X5X+Xx.t.t.t.t.e.9.g.@.Z.D.K.L.K.c.$.8.+.> : O z uXyXrXyXiXiXfXfXfXfX",
"dXdXpXfXcXfX=X* & = R.rX8XwX&X&X&XY.k.t.t.t.u.i.g.|.@X@XI.;.z.x.q.s.w.k.o.( N.F : & = ].iXaXfXpXfXfX",
"dXdXfXfXaXfX=X  .   R.fXyXqX&XOX.XP.q.t.u.t.t.q.V.+X5X5X Xh.0.y.e.y.t.p.+.@.V.U O .   ).fXfXzXpXfXfX",
"dXtXfXfXaXfX-X  . . R.fXyX6XoXU.|.K.h.l.l.8.q.x.V.@X0X5XoXj.8.p.e.t.t.e.:...h.L @ +   '.fXtXpXfXfXfX",
"zXtXfXfXcXfX=X  .   E.fXcX6XT.G.G.J. XoX XY.J.J.P. X$X$X XF.J.G.d.u.u.e.e.:.g.E O   . ).pXyXfXdXfXfX",
"tXdXfXyXfXtX=X  + X E.uXqX5XZ.l.k.D.3X5X5X$X|.U.U..X.XOX X|.U.L.b.r.r.e.u.r.v.E $ . . (.pXiXyXfXfXfX",
"tXdXdXdXyXfX-X    X E.qXqX5XZ.9.k.D.4X0X6X%X.XU.U.|.|.U.|.U.U.I.b.r.i.t.u.5.v.E # X   ).pXpXtXfXfXfX",
"fXzXdX:X-X:X_.4 5 1 Q.3X%X+XF.S.S.P.@X%X@X XP.K.K.K.K.H.H.K.K.H.b.4.9.6.u.t.s.! 0 5 3 ~.<X-X:XfXfXfX",
"pXpXpX7     5 tXdX0XT.V.-.@.%X4X4XXX;.h.l.l.9.,.f.9.9.7.7.q.9.0.$.$.,.:.y.y.d.J.0XyXfXf   . * wXfXfX",
"pXpXaX< +   6 tXtX6XL.0.y.h.3XqX0X+Xh.u.t.t.u.u.e.t.y.t.t.t.e.i.0.=.%.$.y.y.,.H.4XqXuXg     * cXfXdX",
"pXfXiX4     q fXiX0XL.1.4.g.%X6X5X+Xl.u.t.t.t.t.t.t.t.t.t.t.u.y.,.#.=.8.y.t.a.G.%X5X0Xj X   * cXfXzX",
"fXiXfX3 X   q iXyX0XL.0.y.l. X#X#XY.1.t.t.t.t.t.t.t.t.u.u.e.t.i.,.<.%.%.3.t.r.g.M.B.*Xy .   * cXpXfX",
"dXdXfX7     5 pXiX6XP.0.y.l.I..X.XP.8.y.t.e.t.u.t.t.t.u.u.t.t.y.,.$.%.,.6.e.i.,...o.N.e #   & yXfXfX",
"dXtXtX7     5 pXaX6XI.h.0.l.K.|.|.H.q.t.y.t.u.t.t.e.t.e.t.u.t.t.,.#.#.8.p.d.s.9.=.;.C.r O   & eXfXfX",
"fXdXtX2     q uXdX0XoXA.D.G.S.G.G.b.a.t.t.5.t.u.t.t.u.t.t.t.t.y.,.%.%.-.[ { { _ _ _ ` e X   & cXfXfX",
"fXfXdX2     q uXdXqX@X.X|.L.@...-.%.y.t.u.u.u.u.t.t.t.u.u.t.t.y.7.%.%.&.J J C C G I U 0 .   & cXfXdX",
"pXpXfX7     5 fXpXqX$X.X XI.j...%.,.y.t.t.t.u.u.u.u.u.u.u.e.u.p.7.%.%.-.J A C H Z D F 0 .   & rXfXfX",
"pXpXfX3     5 dXtXqX+XY.I.H.h.,.$.,.,.7.,.1.:.,.,.,.7.2.:.:.:.:.,.$.$.%.W T T J P L U 0 .   & cXfXzX",
"fXfXfX<     6 tXzX6XY.c.x.s.r.e.d. .T J A Y Y Y K P P J Y Y Y Y  .y.p.p.4.,.7.1.&.O.M.r .   * rXfXdX",
"fXfXdX<     9 tXrX6XP.k.q.5.i.u.p. .A Z L Z Z Z H H H H E Z Z A  .a.e.e.i.r.y.4.&.O.M.r O   * rXfXpX",
"fXfXfX<     8 tXrX0XL.8.y.i.>.d.f. .J A J A A C C K K K K A C A X.s.d.a.e.e.a.1.Z.M.B.r o   & rXdXfX",
"fXfXpX).!.!.W.f f u ~ v.5.r.] Q Q ) [ } } [ { | | } X.X.X.[ [ [ ) ) Q ] 4.e.a.] t t e / (.~._.rXfXfX",
"fXzXuXzXuXpX=X  . $ S f.e.9.W G G ) 8.9.4.6.2.9.7.q.6.6.7.q.q.k.Q C A Y 4.e.d.W % O O (.dXfXiXfXfXfX",
"fXfXcXcXyXaX-XX . $ S v.r.0.P H I W 8.3.5.e.3.3.3.3.3.3.3.3.5.7.! C Z T 7.y.d.R $ O   ).tXrXfXpXfXfX",
"fXfXzXzXpXfX=X    $ V c.1.<.P Z Z W ,.3.3.5.6.3.3.3.3.3.e.5.5.q.Q V Z R %.8.z.E $ O   /.fXtXpXuXfXfX",
"iXfXtXdXcXfX=X  X = B Z...=.K Z Z W ,.e.5.5.6.6.3.3.>.3.e.3.5.7.! V Z J &.%.g.L O     ).dXfXuXpXfXfX",
"fXfXfXfXtXfX-X.   O v A.+.h.E Z C W :.3.5.5.5.3.3.3.3.3.e.e.5.q.Q C L P +...j.D $ +   ).fXyXfXpXfXfX",
"fXdXfXfXfXfX=X  o O v M.n.o.E A A W q.3.5.5.3.5.e.3.3.3.5.3.5.6.) G C L o.m.M.F O + . /.fXyXfXfXfXfX",
"dXdXfXtXfXfXwX8X;XwX^ $ > > ` -.| &.2.5.6.5.5.3.5.6.5.6.3.3.3.2.*.-.+.` 0 : ; z wX;X,XeXfXfXdXdXfXfX",
"tXdXdXdXdXfXfXtXfXfXx . . $ ` O.-.%.8.2.2.2.>.>.2.2.2.2.>.>.>.,.%.+.-.o.; X X k fXcXzXzXfXpXdXdXfXfX",
"fXfXfXdXdXdXdXdXrXtXx   X * ' C.V.V.c.z.0.l.f.l.x.x.x.z.l.g.g.g.j.Z.Z.N.; X   k dXzXtXdXpXfXfXfXfXfX",
"fXfXdXdXdXdXdXdXdXtX[.b E.^ s M a M M m m m v i m m m m i v i v p p p a ^ E.N ).dXtXtXdXdXfXpXzXfXfX",
"pXpXdXzXdXdXzXdXtXtXpXpXcXuX, @ O $ @ @ $ O O . @ @ @ @ O O O . . O $ ; 9XdXdXfXdXdXdXdXdXdXtXtXdXfX",
"pXpXdXdXdXfXzXuXdXdXuXuXpXaX1 X .                   X               X = 9XtXtXtXtXtXdXfXtXtXtXdXfXfX",
"aXdXtXdXfXfXfXfXtXdXfXfXiXtXg 1 < 7 < < < 7 7 7 < < 3 3 < < < 2 7 7 < 5 9XfXfXfXfXfXfXfXfXfXfXfXfXfX",
"fXfXdXtXfXfXfXfXfXtXfXfXfXdXdXyXdXfXfXfXdXdXtXzXfXfXiXiXpXfXfXfXfXdXyXdXpXpXfXfXdXdXfXfXfXfXfXpXfXfX",
"fXfXdXdXfXfXfXfXfXdXfXfXfXfXfXdXdXfXfXfXfXdXdXdXfXfXfXfXfXfXfXfXfXfXfXfXfXfXfXfXfXfXfXfXfXfXfXfXfXfX",
"fXfXfXfXfXfXfXfXfXfXfXfXfXfXfXfXfXfXfXfXfXfXfXfXfXfXfXfXfXfXfXfXfXfXfXfXfXfXfXfXfXfXfXfXfXfXfXfXfXfX"
};
