/* XPM */
static char *d1697ac04f5047ae8a4a15a8167dd237oou7oRmP55YY6YPv[] = {
/* columns rows colors chars-per-pixel */
"50 50 63 1 ",
"  c black",
". c gray2",
"X c gray4",
"o c gray5",
"O c gray7",
"+ c gray9",
"@ c #191919",
"# c gray11",
"$ c #222222",
"% c gray15",
"& c gray17",
"* c #2C2C2C",
"= c gray19",
"- c #343434",
"; c #3A3A3A",
": c #3E3E3E",
"> c #414141",
", c gray27",
"< c #4B4B4B",
"1 c #4C4C4C",
"2 c gray34",
"3 c #585858",
"4 c gray36",
"5 c gray39",
"6 c #656565",
"7 c #686868",
"8 c #6C6C6C",
"9 c #727272",
"0 c #747474",
"q c #7B7B7B",
"w c gray50",
"e c gray51",
"r c gray53",
"t c #8B8B8B",
"y c gray56",
"u c #939393",
"i c gray59",
"p c gray60",
"a c gray62",
"s c gray64",
"d c #A4A4A4",
"f c #AAAAAA",
"g c #AFAFAF",
"h c #B2B2B2",
"j c #B7B7B7",
"k c #BCBCBC",
"l c gray75",
"z c #C1C1C1",
"x c gray78",
"c c #CACACA",
"v c #CECECE",
"b c gray82",
"n c gray84",
"m c #DADADA",
"M c gray87",
"N c #E1E1E1",
"B c #E6E6E6",
"V c gray91",
"C c #ECECEC",
"Z c #F1F1F1",
"A c #F6F6F6",
"S c #F9F9F9",
"D c white",
/* pixels */
"DDDDDDDDDDDDDDDDDDDDDDDDDDDDDDDDDDDDDDDDDDDDDDDDDD",
"DDDDDDDDDDDDDDDDDDDDDDDDDDDDDDDDDDDDDDDDDDDDDDDDDD",
"DDDDDDDDDDDDDDDDDDDDDDDDDDDDDDDDDDDDDDDDDDDDDDDDDD",
"DDDDVrwwwebDDDDhqwwwaSDDDBrwwwwnDDDDgqwwwsSDDDDDDD",
"DDDDbO   .fDDDD6    :ADDDvO    gDDDD5    >SDDDDDDD",
"DDDDbO    fDDDD6    :ADDDvo    gDDDD5    >ADDDDDDD",
"DDDDbO    fDDDD6    :ADDDvo   .gDDDD4    >SDDDDDDD",
"DDDDbO    fDDDD6    :ADDDvO    gDDDD5    >ADDDDDDD",
"DDDDm;&**&wjjhh4&*&&,gjjju=&&*&rlhhj3***%<gjjhlADD",
"DDDDSCVCCM- .. 8CCVCu. . @cCVCM* .  8CCVCy ...@MDD",
"DDDDDDDDDZ-    9DDDDa    @mDDDC=    qDDDDp    #MDD",
"DDDDDDDDDZ-    9DDDDa    @mDDDZ=    0DDDDp    @MDD",
"DDDDDDDDDZ-    9DDDDa    @mDDDC=    0DDDDi    @MDD",
"DDDDSNMNNb-XooX7NMMNyXoXo#lNMNb-XooX8NMNNtXooX%MDD",
"DDDDn*####tcxxx4@##@>lxxcs%####ycxxx3###@,zxxxvADD",
"DDDDbO    fDDDD6    :ADDDvO    gDDDD5    >ADDDDDDD",
"DDDDbO   .fDDDD6    :ADDDvo    gDDDD5    >SDDDDDDD",
"DDDDbO    dDDDD6    :ADDDvO    gDDDD5    >ADDDDDDD",
"DDDDbO    dDSAS5    :CSSSco   .fDASS4    >ZSSASDDD",
"DDDDVauiiy1,,,,4iiip8>,,,,riiuy<,,,,5uiii8>,,,3BDD",
"DDDDDDDDDZ-    9DDDDa    +mDDDC=    0DDDDp    @MDD",
"DDDDDDDDDZ-    9DDDDa    @mDDDZ=    qDDDDp    @MDD",
"DDDDDDDDDZ-    9DDDDa    @mDDDZ=    0DDDDp    @MDD",
"DDDDDDDDDZ-    9DDDDa    +mDDDZ=    0DDDDi    #MDD",
"DDDDBr0qw0244444qqqq6344438qqq9244534qqqq534449VDD",
"DDDDbO    fDDDD6    :ADDDvO    gDDDD5    >SDDDDDDD",
"DDDDbO    fDDDD6    :ADDDvo    gDDDD5    >SDDDDDDD",
"DDDDbO    fDDDD6    :ADDDvO    gDDDD4    >ADDDDDDD",
"DDDDbO   .fDDDD6    :ADDDvO   .gDDDD5    >SDDDDDDD",
"DDDDm:****whhgh4****<fghhu=**=*whhhg3*=**<fghhjZDD",
"DDDDDCCCCN-  . 7ZCCAu .. @cZCCM= .. 9CCCZy .. #MDD",
"DDDDDDDDDZ-    9DDDDa    @mDDDZ=    0DDDDp    @mDD",
"DDDDDDDDDZ-    9DDDDa    +mDDDC=    qDDDDp    @MDD",
"DDDDDDDDDZ-    9DDDDa    @mDDDZ=    0DDDDi    @MDD",
"DDDDSMmMmb-Xooo6MMMMtoooo$lMMMv=oooo8MmMMroooo&MDD",
"DDDDn&@@@@yvvcv4+@@+>zcvvd$+@#@yvccv3+@@@,xcvcbADD",
"DDDDbO    dDDDD6    :ADDDvO   .gDDDD5    >ADDDDDDD",
"DDDDbO    fDDDD6    :ADDDcO    fDDDD5    >SDDDDDDD",
"DDDDbO   .fDDDD6    :ADDDvo    gDDDD5    >SDDDDDDD",
"DDDDbO    sDAAA5    :CSASco   .fSSAS4    >CSAAADDD",
"DDDDCsppau<>>>:4pppp8>>>>>tpppu<>>>:5pppa7:>>>2NDD",
"DDDDDDDDDZ-    0DDDDa    +mDDDC=    0DDDDp    @MDD",
"DDDDDDDDDZ=    9DDDDa    @mDDDC=    qDDDDp    #MDD",
"DDDDDDDDDZ-    9DDDDa    @mDDDZ=    0DDDDp    @MDD",
"DDDDDDDDDZ=    9DDDDa    +mDDDC=    0DDDDp    @MDD",
"DDDDDDDDDAe5554fDDDDz55559BDDDAe5555fDDDDl55550VDD",
"DDDDDDDDDDDDDDDDDDDDDDDDDDDDDDDDDDDDDDDDDDDDDDDDDD",
"DDDDDDDDDDDDDDDDDDDDDDDDDDDDDDDDDDDDDDDDDDDDDDDDDD",
"DDDDDDDDDDDDDDDDDDDDDDDDDDDDDDDDDDDDDDDDDDDDDDDDDD",
"DDDDDDDDDDDDDDDDDDDDDDDDDDDDDDDDDDDDDDDDDDDDDDDDDD"
};
