/* XPM */
static char *_564dccf2d754bede3c0dcff7d9bead4NnsmD5Tncw2pj2CM[] = {
/* columns rows colors chars-per-pixel */
"50 48 245 2 ",
"   c #010202",
".  c #0C0101",
"X  c #0D0B08",
"o  c #130201",
"O  c #1A0404",
"+  c #1C0A06",
"@  c #150C0A",
"#  c #180A09",
"$  c #1A110D",
"%  c #14120E",
"&  c #1D1312",
"*  c #1D1A17",
"=  c #270808",
"-  c #350B0B",
";  c #23130D",
":  c #2B120D",
">  c #381609",
",  c #251915",
"<  c #2B1B14",
"1  c #261C1B",
"2  c #2B1E1A",
"3  c #271512",
"4  c #341B14",
"5  c #3B1B17",
"6  c #2E0B11",
"7  c #2E221B",
"8  c #27211A",
"9  c #33231C",
"0  c #3B241D",
"q  c #3B2316",
"w  c #2B1C21",
"e  c #2C2623",
"r  c #342522",
"t  c #3A2621",
"y  c #362923",
"u  c #3C2B24",
"i  c #392E2A",
"p  c #3D312B",
"a  c #461817",
"s  c #571B19",
"d  c #43180F",
"f  c #47291D",
"g  c #56241D",
"h  c #422D25",
"j  c #452E2A",
"k  c #492A26",
"l  c #562723",
"z  c #4C3226",
"x  c #45332B",
"c  c #4A342B",
"v  c #473329",
"b  c #52342B",
"n  c #553A2E",
"m  c #583629",
"M  c #4C3A33",
"N  c #473935",
"B  c #543C34",
"V  c #583C35",
"C  c #692826",
"Z  c #752125",
"A  c #6E3731",
"S  c #5B443A",
"D  c #584239",
"F  c #4C423C",
"G  c #63473D",
"H  c #584C47",
"J  c #4E4946",
"K  c #674D44",
"L  c #6B544A",
"P  c #72564A",
"I  c #745A4D",
"U  c #785749",
"Y  c #7A5D52",
"T  c #745D54",
"R  c #6C5A50",
"E  c #796357",
"W  c #6B615D",
"Q  c #796B66",
"!  c #786E6F",
"~  c #982B33",
"^  c #8C2F32",
"/  c #A82B35",
"(  c #A8363D",
")  c #B9343C",
"_  c #B42936",
"`  c #C82D3E",
"'  c #95413F",
"]  c #A33C40",
"[  c #CA3441",
"{  c #D13544",
"}  c #915850",
"|  c #83665A",
" . c #84695E",
".. c #8B6B5C",
"X. c #866454",
"o. c #936C5B",
"O. c #95715E",
"+. c #836C63",
"@. c #8A6D63",
"#. c #856E6A",
"$. c #857166",
"%. c #8C7166",
"&. c #8D756A",
"*. c #85756C",
"=. c #9A7563",
"-. c #957768",
";. c #8A7A75",
":. c #947C71",
">. c #977D75",
",. c #966A65",
"<. c #A37E6C",
"1. c #A77A68",
"2. c #A5716C",
"3. c #A14948",
"4. c #9E897D",
"5. c #998379",
"6. c #89817E",
"7. c #A4816E",
"8. c #AE816C",
"9. c #A48373",
"0. c #A28579",
"q. c #AD8D7C",
"w. c #A98978",
"e. c #B38A77",
"r. c #B5917D",
"t. c #887D85",
"y. c #998985",
"u. c #9A8E91",
"i. c #A28C83",
"p. c #A78D85",
"a. c #A99388",
"s. c #B49484",
"d. c #BA9986",
"f. c #B2958B",
"g. c #B69B8D",
"h. c #BB9C8C",
"j. c #B69885",
"k. c #A39592",
"l. c #AD9692",
"z. c #AB9B95",
"x. c #AB9D9B",
"c. c #B29C96",
"v. c #B99C91",
"b. c #B39D99",
"n. c #A48E90",
"m. c #BFA18E",
"M. c #BCA195",
"N. c #B4A29C",
"B. c #BCA49C",
"V. c #B8A498",
"C. c #ACA19D",
"Z. c #ABA5A3",
"A. c #BDAAA6",
"S. c #BBADAC",
"D. c #B6A8A4",
"F. c #B6B1AE",
"G. c #BCB8B7",
"H. c #C59C8B",
"J. c #C19C96",
"K. c #C1A18E",
"L. c #C3A493",
"P. c #C3A59B",
"I. c #C4AA9D",
"U. c #CBAC9B",
"Y. c #C9A896",
"T. c #D1B19C",
"R. c #D3A49E",
"E. c #C4ABA3",
"W. c #CAADA3",
"Q. c #C3ADAA",
"!. c #C9ABA7",
"~. c #D9ABA6",
"^. c #C5B1A6",
"/. c #CDB1A5",
"(. c #CCB4AB",
"). c #C9B5AD",
"_. c #D2B2A4",
"`. c #D2B5AA",
"'. c #D4B9AD",
"]. c #D9BCAE",
"[. c #D5B8A6",
"{. c #C3B6B4",
"}. c #C9B6B3",
"|. c #CEBAB3",
" X c #C6BBB9",
".X c #D3BDB4",
"XX c #D9BDB3",
"oX c #D3BFBA",
"OX c #D4B7B4",
"+X c #ECB2AF",
"@X c #BFC1BE",
"#X c #D6C0B6",
"$X c #DBC1B6",
"%X c #D5C3BC",
"&X c #DBC4BC",
"*X c #DEC9BE",
"=X c #CBC2BB",
"-X c #E1C5BB",
";X c #E2C9BD",
":X c #C7BCC0",
">X c #CDC4C3",
",X c #CBC8CA",
"<X c #D3C5C3",
"1X c #DBCAC5",
"2X c #D4CCCC",
"3X c #DBCDCC",
"4X c #D7C8C3",
"5X c #DCD1CD",
"6X c #D5D0CD",
"7X c #DCCED4",
"8X c #CFD0D2",
"9X c #D4D2D3",
"0X c #DDD3D2",
"qX c #DCDADB",
"wX c #DED8D5",
"eX c #CECED0",
"rX c #E2CBC3",
"tX c #E2CBC7",
"yX c #E5D3CE",
"uX c #E9D2CA",
"iX c #E1D5D4",
"pX c #E2D9D5",
"aX c #E4DCDB",
"sX c #ECDDDC",
"dX c #E8D7D5",
"fX c #F4DFD8",
"gX c #E5E1DE",
"hX c #EAE3DE",
"jX c #F4E2DC",
"kX c #EBDEE4",
"lX c #E4E4E2",
"zX c #EBE5E4",
"xX c #ECE9E6",
"cX c #EEECEB",
"vX c #EEE3EB",
"bX c #F3E3E2",
"nX c #F3EEEB",
"mX c #F9EAE7",
"MX c #FAF0EE",
"NX c #F6F2EF",
"BX c #FBF5F3",
"VX c #FFF9F6",
"CX c #FEFBFB",
"ZX c #F3F3F4",
"AX c #FDEEF4",
/* pixels */
"; + O O O O O = 6 5 l l A ,.Z s a a 5 : ; $ 8 i J e * @ o + 0 c K k z z b m g A 3.3.( / _ _ ` ` { { ",
"+ O o o . o O O = = a a 2.+X2.s - 5 f q + o & e * % o O O < T v.@.G B m m m m C A ' ] / _ _ ` ` { { ",
"o . . . o . o O O = a - ,.+X+X3.g g n V h ; + , * o 1 3 o G P.J.w.V b b b m m g g ^ ' ~ ~ _ _ [ ` ` ",
". . . . o o O O = = - = A R.+X~.X.G f b n u 9 7 e B + o V 9.e.R.t.b k V k b m g g C ^ ^ ~ ~ _ ] _ ) ",
"X . . . . . o O = 6 6 5 V ~.~.R.H.o.A z b k h h q f = f e.H.8.Y.,.k M D j b n l g C C Z Z ~ ] ] ) ) ",
"# . . . . . . O O 5 5 k k ~.~.J.H.7...U K G G S R m ..d.e.e.H.1.Y c V V j b b b z g s s Z A ^ ~ ] ) ",
"X . .   . o # & 3 t j a - f.!.~.v.!.OXXX&X;X&X$XU.^.H.1.1.8.e.e.A j V b j M c j z z f s s s C ^ / _ ",
"@ . . . # $ , 9 j w t 0 t p.E.OXrXuXfXfXmXmXmXfX;XB.r.e.8.8.1.1.V k M c j M x x z z k f 5 a l A ~ / ",
"% . . @ , e r r 7 t 9 M ; b.Q.yXbXkXkXvXkXbXbXdXyX;XE.g.h.s.1.,.k S k M V i N h h h h q q 5 5 d ^ ~ ",
"$ X X % 2 e 9 r 2 u u 2 y D.sXmXAXAXkX7XbXbX7XvXjXdXoXE.J.R.s.-.k k k j j k h r 7 7 < < : : : > s Z ",
"$ @ # $ 2 7 9 2 2 r < 1 ;.0XAXG.t.t.2XkXvXkX:X:XC.k.N..X-XXX~.a.k 6 4 5 6 4 3 = ; ; ; ; ; ; $ : - a ",
"$ X @ ; 1 2 < < 2 ; # H dXBXnXu.w # t.vX7XkX:X! $ + L Q.tXoXtX-X,.t 0 t w t 2 2 7 7 < 7 < < < < = = ",
"$ # $ 1 1 3 , 3 < ; 2 u.BXxXcX,X! N t.vX7XkXS.H i t #.oXoX!.OXoX!.V b b c c u N h p u u u q 7 9 , , ",
"1 & , 2 9 2 < 4 9 < p >XBXwXqXnX7X7X7XkXdX7X{.x.Q.}.yXtX!.J.!.!.!.| V V D M v c v v x x p y 9 9 w w ",
"1 1 w r r 9 2 0 y 7 M wXxXaXeX9XAXAXvX<XOXA.tXbXtXdXtX!.B.!.!.!.!.>.G S S D D c M v v x v u u 9 r 2 ",
"1 w r r t 2 0 t y 9 H pXpXaX9X9XkXAX!.t.>.t.uXuXtXtXOX!.!.!.!.!.P.f.L b n c S v c v M x v u u y t w ",
"w 9 y t u 0 0 0 u h D sXvX7X2XiXvXfXOX#.T b.&XtX&X!.E.!.`.~.!.`.`.:.S b n V B D z z v v v F q q u 0 ",
"r y y y u u 0 0 h N B n.iX2X2X2XdXtX~.t.>.B.OXOXuX`.v.J.`.].W.R.v.9.U n z b c h c v v M v q 9 p u 0 ",
"y y t u u h u h B r h Q sX3X:X2X1XD.n.#.,.i.f.!.J.P.P.(.XXXX/.P.p.v.p.Y z z B n D v h h v p u u u 0 ",
"y y u u u u u h < M H N u. X7X2X{.c.l.n.t.i.i.l.l.P.!.~.~._.I.v.| h.W.5.G z z z v n c u u v v y u u ",
"i i r y y u u h c j N N *.,XaX:X}.Q.}.N.b.c.n.f.b.P.Q.~.`.P.:.U E s.XX/.p.E G c f h v v u q u x u 0 ",
"r r r t y u u u D i H S.sXnX0X{.oX}.Q.b.n.l.l.b.b.B.B.P.v.0.| K s.P.'.$X$X/.p.%.R v q h F u q p y y ",
"y y y y y u u i N z.iXCXCXVXzX=X{.A.Q.E.N.l.y.i.B.p.>.@.| @.p.U.`.`./.W.].*X.XB.a.+.D h h z p q u u ",
"i y y y y u i i D.CXMXMXVXsXaX0X:Xl.u.t.t.:.+.;.>.+.Y  .:.p.P.XX/.$X$X(._.-X*XXX^./.4.F < u F q p h ",
"r r i ; N y p C.VXCXBXVXAXzXaXiX3X<X{.D.x.z.c.N.B.A.E.A.I.E.(.].].'.'.`.(.'.&XrXuX).#X4.u q v 9 u u ",
"i < i F y & k.NXVXVXCXBXBXbXhXaXdX7X<XoX}.).}.}.(.(.).}.'..XXX$X$XXX`./.W.'.$XrX*X#X5XV.E F 9 v u u ",
"y y r y p ! ZXCXVXVXCXVXNXnXhXaXpXiX3X1X4X<X<X%XoX|.|.#X#X$X$X$X$X]./.I.W.(.$X;X#X$XyX#XV.R < v u u ",
"9 p 9 & 6.CXCXVXCXCXVXZXNXcXzXsXpXiXiX3X<X<X%X=XoXoXoX.X.X#X#X$XXX`.W.I./.'.#X&X#X*X%X*X*X4.F 9 u u ",
"9 9 p W hXCXzXCXCXCXCXZXnXzXhXaXiXiX0X3X4X<X<X%X%X%X&X%X#X#X&X;X/.W.I./.[.#X#X*X;X;X*X%X#X).6.y u y ",
"9 8 F 4XCXZXCXCXCXCXZXZXnXzXhXaXiXwX0X7X3X4X1X4X4X4X&X<X%X%X&X*XM.I.W.`.#X$X*X*X;XuXuX%X^.=XV.G 9 0 ",
"7 7 W xXCXCXCXZXCXZXZXcXxXhXhXaX0XwX5X5X5X5X1X1X1X%X#X#X&X*X.X^.M.I._.].$X;X;X;X;X;X%X#XA.^.A.$.7 9 ",
"y 7 y.NXCXCXZXCXZXZXZXxXzXgXaXaXwXiXiXpXpX5X5X1X1X%X|.#X1X;X(.B.M.I.[.-X;X;X;X;X;X#XA./.).V.m.6.7 7 ",
"y 8 C.VXNXCXNXCXxXgXxXnXhXpXpXhXaXaXaXaXiX7X3X1X%X1X-XOXOX`.I.g.W./.`.`.^.T.#X#X[.T.I./.I.g.p.w.u $ ",
"7 8 N.BXNXZXxXNXZXxXgXxXhXpX5X5XiXwXiX7X7XtXtXtX&X&XrXXX'.I.s.>.q.j.m.L.Y.I.Y.U.T.Y.m.h.d.s.q.p.N X ",
"8 7 F.BXxXcXlXcXxXgXwXpXgX5X*X6X0X3X7X3X3X1X1X1XrXoXOXXX`.g.w.:.j.d.m.M.m.m.m.m.Y.M.d.s.w.9.7.0.F X ",
"* e G.NXlXlXlXlX9XqXwX9X=X=X=XpX3X3X1X1X1X1X4X&X&X`.W._.W.s.q.q.I.L.m.h.m.m.m.r.g.d.d.r.9.=.=.5.N   ",
"% e @XlXqXqXqXqXqXqXqXwX6X@X=X=X1X3X4X1X*X#X=X#XOXP.M.I.P.s.s.h.m.d.r.m.r.m.r.m.w.e.q.8.8.<.7.0.F   ",
"X * @XlXqXeX8X8XqXwX6X6X6X*X=X#X%X%X<X4X%X#X).#XP.v.v.L.L.s.s.K.d.m.K.K.K.m.m.r.e.w.7.=.=.<.7.0.F   ",
"  % @XcXlX,X8X8XeX,X=XwXpXpX5X#X).|.=X#X=X(.^.T.B.h.g.h.s.q.s.Y.U.T.T.Y.K.r.r.q.w.7.O.o.o.=.=.@.u X ",
"  X @XZXZXeX8X8X@X@X=X6XuXpXpX*X^.^.^.|.).[.^.U.P.M.h.s.w.q.h._.T.T.Y.m.e.7.7.7.O.o.X.X.O.=.o.X.F q ",
"* 8 Z.cXlXlX8XqX6X9XwXpX5XiXfX%X#XV.V.^.U.V.A.B.g.m.q.9.q.m.T.U.Y.T.m.q.q.m.7.7.=.X.G =.O.7.o.U D D ",
"J J F.xXqXqX8X6XqX,X6X>XdXyXjXyX*X#X#XV.V.V.g.q.f.4.-.w.m.U.[.[.Y.T.V.m.m.r.w.r.O.X.U =.=.8.o.G G D ",
"W ! Z.6X=X8XqX6X@XZ.F.D.hXfXjXuX;X;X=Xj.m.m.g.r.0.:.-.g.(.].[.#X#XY.r.j.m.m.7.7.-...X.=.o.7.U m D D ",
"! ! k.{.F.G.5X1XF.C.k.i.*XjXjXdXfXuX#XV.5.Q $.Q $.5.I.$X;X;X#X[.T.[.m...I I Y X...X.X.E U X.G m m D ",
"k.4.k.F.C.k.F.@X=X@X4.$.z.MXjXfX^.V.*X=X$.L E I D 4.;X;X'.#XI.m.A.V.E q : f D G P L Y I P I E P ....",
"F.z.D.^.C.k.k.D.F.C.*.W $.*X=X/.A.a.V.g.S q F v q  .#XV.5.a.5.$.q.E q q D P G U Y Y ..+...X.%...X.E ",
"^.V.^.A.A.A.z.Z.4.;.6.$.Q V.5.4.5.*.Q R G F H R S R a.5.$.:.E $.E I I E $.%.@.&.:. .-.-.-. .-.%.7.6.",
"Q.z.^.V.S.=XV.V.F.k.F.z.5.q.5.4.4.V.4.5.V.A.a.4.a.$.5.5.4.y.$.0.5.4.4.5.5.0.&.E 9.E  .| %.E %.%.Q E "
};
