/* XPM */
static char *_b9c5864ffee4eaef22186f0c2df01d2iFbMWLo8aBCN4FtU[] = {
/* columns rows colors chars-per-pixel */
"50 50 100 2 ",
"   c #000000",
".  c #030807",
"X  c #030C0C",
"o  c #05100F",
"O  c #041313",
"+  c #051C1C",
"@  c #0B1D1E",
"#  c #101717",
"$  c #111E1E",
"%  c #04201F",
"&  c #051F20",
"*  c #081F20",
"=  c #052323",
"-  c #092221",
";  c #042B2C",
":  c #0B2829",
">  c #142020",
",  c #112E2E",
"<  c #012F30",
"1  c #013333",
"2  c #0A3535",
"3  c #023738",
"4  c #023B3C",
"5  c #0C3839",
"6  c #143130",
"7  c #163C3C",
"8  c #034343",
"9  c #034748",
"0  c #034A4A",
"q  c #1B4242",
"w  c #035555",
"e  c #045959",
"r  c #254343",
"t  c #264748",
"y  c #2E4B4B",
"u  c #365252",
"i  c #045F60",
"p  c #036263",
"a  c #036B6B",
"s  c #047575",
"d  c #037E7E",
"f  c #48605F",
"g  c #4E6767",
"h  c #4E6869",
"j  c #5E7373",
"k  c #028485",
"l  c #038A8A",
"z  c #058F90",
"x  c #019595",
"c  c #009897",
"v  c #039C9C",
"b  c #01A09F",
"n  c #03A5A5",
"m  c #03A7A8",
"M  c #02ACAC",
"N  c #02B4B4",
"B  c #02B7B8",
"V  c #02BCBC",
"C  c #28A5A5",
"Z  c #01BFC0",
"A  c #01C1C2",
"S  c #02CCCC",
"D  c #02D5D5",
"F  c #04D8D7",
"G  c #02DADA",
"H  c #02E5E5",
"J  c #02ECEC",
"K  c #02F4F4",
"L  c #01FFFF",
"P  c #0AFFFE",
"I  c #3CEAEA",
"U  c #24FEFE",
"Y  c #3AFEFD",
"T  c #62D7D7",
"R  c #41FEFD",
"E  c #62FCFC",
"W  c #62FFFF",
"Q  c #64FDFD",
"!  c #939D9D",
"~  c #8DA5A5",
"^  c #94A5A5",
"/  c #96A7A6",
"(  c #9BA3A3",
")  c #9FA6A6",
"_  c #BAC6C6",
"`  c #9BFDFC",
"'  c #9CFFFE",
"]  c #A9FEFD",
"[  c #C0C5C5",
"{  c #CFD5D6",
"}  c #DBDCDB",
"|  c #D8FEFD",
" . c #ECF0EF",
".. c #F4F5F5",
"X. c #F3FEFE",
"o. c #F4FFFE",
"O. c #F4FFFF",
"+. c #F8F8F8",
"@. c #FDFCFC",
"#. c white",
/* pixels */
"                                                                                                    ",
"                                                                                                    ",
"                                                                                                    ",
"                                                                                                    ",
"                                                                                                    ",
"                            .       .         . .     .       .   .       .                         ",
"                    . - : : : : : : : : : : : : : : : : : : : : : : : : : : % .                     ",
"                  . O 1 1 1 1 1 2 1 1 3 1 1 1 3 1 1 1 1 3 1 1 1 1 1 1 1 1 2 < o .                   ",
"                  @ 2 1 1 1 1 ; < 1 1 1 < 1 1 1 1 1 1 1 < 1 < 1 < 1 1 1 1 1 1 1 +                   ",
"              . + ; 1 ; g / / ^ ~ C n n n n n n n n n n n n n m b l k k l e < 1 ; + .               ",
"              O 1 1 5 y ( #.#.#.o.R L L L L L L L L L L L L P L K A A A A k 8 3 1 ; O               ",
"            @ 2 1 < y } ..#.#.#.X.R L L L L L L L L L L L L L L K A A A A V n 8 < 1 < *             ",
"        . O ; 1 1 g ) ..#.#.#.#.X.R L L L L L L L L L L L L L L J A A A A A V k e 1 1 ; +           ",
"      . @ 2 1 3 q ) #.#.#.#.#.X.| Y L L L L L L L L L L L L L L K A A A A A A A l 4 1 1 1 # .       ",
"      - 2 1 ; u { ..#.#.#.#.#.] U P L L L L L L L L L L L L L L L K D A A A A A B n 9 < 1 < -       ",
"  . O ; 1 2 h ! o.#.#.#.#.#.#.` L L L L L L L L L L L L L L L L L L G A A A A A A Z d e 1 1 ; + .   ",
"  O 1 1 2 7 _ #.#.#.#.#.#.#.#.' L L L L L L L L L L L L L L L L L L G A A A A A A Z A v 4 1 1 < O   ",
"  O 1 1 f [  .#.#.#.#.#.#.#.#.' L L L L L L L L L L L L L L L L L L F Z A A Z A A A A B v w 1 1 O   ",
"  O 1 < j #.#.#.#.#.#.#.#.#.#.' L L L L L L L L L L L L L L L L L L G Z A A Z A A A A A A p < 1 O   ",
"  O 1 ; j ..#.o.#.#.#.o.#.#.#.` L L L L L L L L L L L L L L L L L L F Z A A A A A A A A Z i 1 1 O   ",
"  O 1 1 t j T Q E E E E E E Q I D D D D D D D D D D D D D D D D F D N n n n n n m n m x p 8 1 1 O   ",
"  X = 1 1 1 n G L L L L L L L H S A Z A A A A V Z Z A Z Z Z Z A Z N n x x x x x x x k a < 1 < = X   ",
"    . = 1 1 3 p K L L L L L L L K S Z A A A A A A A A A A A A A B v c x c x x x x x 0 3 1 1 : .     ",
"      X % 1 1 9 k S L L L L L L L S V A A A A A A A A A A A A A N c x x x c x x d e 3 1 1 * X       ",
"        X ; < 1 ; x H L L L L L L D S A A A A A A A Z A Z A A Z N x x x x c x l p 1 1 1 ; X         ",
"          . = 1 1 4 i J L L L L L K H A A A A A A A A A A A Z n v x x x x v x 0 2 1 1 = .           ",
"            o * 1 1 8 z S L L L L L J A A A A A A A A A A A Z b x x x x x k e 3 1 1 * O             ",
"              . ; < 1 ; l K L L L L J A A A A A A A A A A Z V b x x x x x e 1 1 1 ; .               ",
"                . - 1 1 8 p H L L L L J S A A A A A A Z A N b c x x x l 0 4 1 1 + .                 ",
"                  X = < 1 3 v D L L L L D A A A A A A A A N x x x x k p 3 1 < & o                   ",
"                    . ; 1 1 ; d L L L L D A A A A A A A Z N x x x x w 1 1 1 ; .                     ",
"                      . + 1 1 9 a D L P K H A A A A A Z n v x c k w 8 1 1 + .                       ",
"                        X = 1 1 1 v F P L K S A A A A Z b x x k a 1 1 < = o                         ",
"                          . ; 1 1 1 a K L K A A A A A Z b x x w 1 1 1 : .                           ",
"                            X - 1 1 9 d D L H S Z A B n c d e 4 1 1 - o                             ",
"                              X ; ; 1 1 v H L G A A M x l a 1 1 1 ; o                               ",
"                                . = 1 1 3 p K G A A M x 0 3 1 1 = .                                 ",
"                                  X % 1 1 8 l m A A x i 4 1 1 + X                                   ",
"                                    . ; < 1 ; s V N s < 1 1 ; .                                     ",
"                                      . = 1 1 8 0 0 8 1 1 % .                                       ",
"                                        X + 1 1 1 1 1 1 - X                                         ",
"                                          . ; 2 1 1 2 2 .                                           ",
"                                            o 6 1 1 r #                                             ",
"                                              $ : , >                                               ",
"                                                . .                                                 ",
"                                                                                                    ",
"                                                                                                    ",
"                                                                                                    ",
"                                                                                                    ",
"                                                                                                    "
};
