/* XPM */
static char *_a878f40dcf2400e8adbe7417f96171cgtWJU4U7och40wqS[] = {
/* columns rows colors chars-per-pixel */
"49 49 106 2 ",
"   c #000000",
".  c #020807",
"X  c #020708",
"o  c #030A0A",
"O  c #090F0F",
"+  c #031515",
"@  c #0D1313",
"#  c #051718",
"$  c #041A1A",
"%  c #041F20",
"&  c #062323",
"*  c #0B2424",
"=  c #032C2D",
"-  c #092A2A",
";  c #122A2A",
":  c #182D2E",
">  c #042F30",
",  c #023334",
"<  c #093536",
"1  c #013738",
"2  c #023A3B",
"3  c #133E3E",
"4  c #023F40",
"5  c #173F40",
"6  c #024445",
"7  c #034D4D",
"8  c #134546",
"9  c #1B4344",
"0  c #035353",
"q  c #035D5E",
"w  c #204646",
"e  c #036465",
"r  c #036768",
"t  c #036C6C",
"y  c #046F70",
"u  c #037373",
"i  c #027B7B",
"p  c #316363",
"a  c #556C6C",
"s  c #5D7676",
"d  c #617474",
"f  c #677B7B",
"g  c #6A7C7C",
"h  c #038282",
"j  c #028F8F",
"k  c #01908F",
"l  c #009595",
"z  c #019897",
"x  c #029C9C",
"c  c #039FA0",
"v  c #01A2A2",
"b  c #02ACAC",
"n  c #02B4B4",
"m  c #01B7B8",
"M  c #02BABB",
"N  c #1AB8B8",
"B  c #738585",
"V  c #7A8D8E",
"C  c #7DB8B8",
"Z  c #01C0BF",
"A  c #02BFC0",
"S  c #01C2C2",
"D  c #04C8C7",
"F  c #02C7C8",
"G  c #02CBCB",
"H  c #02D3D4",
"J  c #01DCDD",
"K  c #16DFDF",
"L  c #35C9C9",
"P  c #02DFE0",
"I  c #02E5E5",
"U  c #01EEEE",
"Y  c #02EFF0",
"T  c #02F5F4",
"R  c #01F7F8",
"E  c #01FFFF",
"W  c #0CFFFE",
"Q  c #19FFFE",
"!  c #24FEFE",
"~  c #34F7F7",
"^  c #34FCFC",
"/  c #51F3F2",
"(  c #69FFFE",
")  c #75FEFD",
"_  c #7EFEFD",
"`  c #ABB8B8",
"'  c #ADBBBA",
"]  c #BDCACA",
"[  c #B1FBFB",
"{  c #BBFFFF",
"}  c #C5C9C9",
"|  c #C8CCCC",
" . c #D4DBDB",
".. c #DCDEDE",
"X. c #C2F2F2",
"o. c #C3FDFD",
"O. c #C5FDFD",
"+. c #CFFEFE",
"@. c #E4E7E7",
"#. c #EBEBEA",
"$. c #E7FFFE",
"%. c #F7FFFF",
"&. c #F8F9F9",
"*. c #FAFBFB",
"=. c gray99",
"-. c #FDFFFE",
/* pixels */
"                                                                                                  ",
"                                                                                                  ",
"                                                                                                  ",
"                                                                                                  ",
"                                                                                                  ",
"                      . X X X X X X X X X X X X X X X X X X X X . . X X . .                       ",
"                    o * - - - - - - - * - - - * - - - - - * - - - - - - - * o                     ",
"                  O $ , , , , , , , , , , , , , , , , , , , , , , , , , , , $ o                   ",
"                o & < < 3 9 8 9 8 6 6 6 6 6 6 6 6 6 6 6 6 6 6 6 4 4 4 6 2 , , % o                 ",
"              X * , , 3 B ' ' ' C N m m M m M M M m m M M M M n x l l l y 2 , > & o               ",
"            O $ < , w f } -.-.-.{ ! E E W E E E E E E E E E W T H S S D x r 4 , , $ o             ",
"          X & , , 5 g #.=.-.-.-.{ ! E E E E E E E E E E E E E T H S S S Z n e 2 , , & o           ",
"        o & > , 3 B } -.-.-.-.-.{ ! E E E E E E E E E E E E E T H S S S S S x u 2 , > % o         ",
"    X o * , , 9 f | -.-.-.-.%.+._ Q E E E E E E E E E E E E E R J F S S S S S v e 2 , , & o       ",
"    o & < , 9 f @.*.-.-.-.-.$.) W E E E E E E E E E E E E E E E R I S S S S S M b e 2 1 , & o     ",
"  o & = , 3 V } *.-.-.-.-.-.$.( E E E E E E E E E E E E E E E E E U F S S S S S S x u 2 , > & o   ",
"  + , , 9 s  .-.-.-.-.-.-.-.$.( E E E E E E E E E E E E E E E E E I D S S A S S A S b e 6 , , +   ",
"  + < , d ..*.-.-.-.-.-.-.-.$.( E E E E E E E E E E E E E E E E E I D S S S S S S S M b e , > +   ",
"  # = < B -.-.-.-.-.-.-.-.-.$.( E E E E E E E E E E E E E E E E E I D Z S S S S S S S S t 1 > +   ",
"  + < , a ] X.o.O.O.O.O.O.O.[ / U U U U U U U T U U U U U U U U T H M m m m m m m m n c q 1 , +   ",
"  + = , 3 p L ~ ^ ^ ^ ^ ^ ^ ~ K G G G G G G F G G F G G G F G F G m v x x x x x x x h 0 4 , = +   ",
"  X $ = , 2 i m E E E E E E E U H S A A M S A S S Z S Z S S S Z b c z l z l z l z u 0 , > > $ X   ",
"      $ - , 1 e F T E E E E E E U F S A S S S S S S S S S S S M v z z l z l z j i 7 < , = $ X     ",
"      o $ = , 6 r S R E E E E E U F S S S S S S S S S S S S S M c l l l l l z u 7 1 > > # X       ",
"        o $ = , 1 u m R E E E E T P G S S S S S S Z S S S S m b z z z l z l u 0 1 , = # o         ",
"            $ = , 1 e D U E E E E R J S A S S S S S S S S A b z l l l z j i 7 , , = $ X           ",
"            o # , , 2 r S W E E E R J S S S S S S S S S S M b z l l z z i 7 2 , > # o             ",
"              X $ - , 1 y M T E E E Y H S S S S S S S S M n v z l z l u 0 , , - $ X               ",
"                X $ = , 2 r G T E E E U F S S S S S S S M v z z z k i 7 1 , = $ X                 ",
"                  X + = , 2 t Z E E E U G M S S S S S S M v l z z u 7 2 , = + X                   ",
"                    X + - , 2 t M U E T I G S S S S S m b z z j i 0 1 , = + X                     ",
"                      X $ - , 2 r D T E R J S S S S S b z l l i 7 1 , = # X                       ",
"                        X # = , 2 r M E E J S Z S S S b x x u 7 1 , = # X                         ",
"                          o $ = , 2 y Z Y U H D S Z m v k u 0 1 1 = $ .                           ",
"                            o $ > , 2 t G R U G Z M v l h 7 1 , > % .                             ",
"                              X # = , 2 r M Y G Z M v u 7 1 , = # o                               ",
"                                . $ = , 1 u n S D n h 0 1 , = # .                                 ",
"                                  X + = , 1 q x Z x 0 1 , > $ .                                   ",
"                                    . + = , 2 0 e 0 2 , = +                                       ",
"                                        + = , 1 , 1 , = $ .                                       ",
"                                        X $ = < 1 , < $ X                                         ",
"                                          X * < , 3 : o                                           ",
"                                            O ; - : @                                             ",
"                                              X o X                                               ",
"                                                                                                  ",
"                                                                                                  ",
"                                                                                                  ",
"                                                                                                  ",
"                                                                                                  "
};
