/* XPM */
static char *_d7cc445039d4b26acff577b4a1c5efeZNuvTYWPdB0xsJbH[] = {
/* columns rows colors chars-per-pixel */
"49 47 217 2 ",
"   c #000000",
".  c #080706",
"X  c #090807",
"o  c #0B0A09",
"O  c #110E0D",
"+  c #15100F",
"@  c #19110F",
"#  c #131111",
"$  c #1B1412",
"%  c #1C1815",
"&  c #1B1B1B",
"*  c #251B16",
"=  c #241E1C",
"-  c #25201E",
";  c #2C221E",
":  c #221F20",
">  c #2C2523",
",  c #292626",
"<  c #352A26",
"1  c #362A26",
"2  c #3B2D29",
"3  c #3C312D",
"4  c #3B2F30",
"5  c #3C3533",
"6  c #3E3A3A",
"7  c #443530",
"8  c #4C3C38",
"9  c #56423A",
"0  c #6A503F",
"q  c #4C4646",
"w  c #564A46",
"e  c #595657",
"r  c #634B44",
"t  c #65534C",
"y  c #6E564D",
"u  c #76584A",
"i  c #6D5B55",
"p  c #675C5B",
"a  c #735E54",
"s  c #785E55",
"d  c #6C605B",
"f  c #7A6358",
"g  c #5F5E60",
"h  c #6B6666",
"j  c #796A67",
"k  c #7B7776",
"l  c #825D4B",
"z  c #87664D",
"x  c #896552",
"c  c #85675A",
"v  c #866858",
"b  c #8F6B5B",
"n  c #916C5A",
"m  c #94705E",
"M  c #98715F",
"N  c #826B64",
"B  c #976864",
"V  c #8B7567",
"C  c #8C736A",
"Z  c #9A7563",
"A  c #9D7865",
"S  c #947669",
"D  c #9D7B6B",
"F  c #887A78",
"G  c #997B71",
"H  c #AC6F64",
"J  c #A67969",
"K  c #A27D6B",
"L  c #A57C77",
"P  c #B57A75",
"I  c #8A8175",
"U  c #9A8373",
"Y  c #95867D",
"T  c #9C867D",
"R  c #A5826C",
"E  c #AD826C",
"W  c #A38374",
"Q  c #AA8574",
"!  c #A68876",
"~  c #AE8B77",
"^  c #AD8C7C",
"/  c #B88676",
"(  c #B28A74",
")  c #B38E7D",
"_  c #AD927F",
"`  c #B4917D",
"'  c #BA947F",
"]  c #C58868",
"[  c #C28D78",
"{  c #C9947C",
"}  c #9B7F80",
"|  c #888483",
" . c #9C8B86",
".. c #9B9695",
"X. c #9A9597",
"o. c #A48583",
"O. c #AC8D84",
"+. c #A68F8B",
"@. c #A59185",
"#. c #AA9184",
"$. c #AA968C",
"%. c #B39484",
"&. c #BA9685",
"*. c #BB9985",
"=. c #B79788",
"-. c #B39A8E",
";. c #BB9C8C",
":. c #A89692",
">. c #A39A99",
",. c #B49B92",
"<. c #BA9C92",
"1. c #B59C98",
"2. c #BEA08E",
"3. c #AEA093",
"4. c #BDA293",
"5. c #B6A19C",
"6. c #BCA59C",
"7. c #BEA99E",
"8. c #A9A6A7",
"9. c #B7ABA6",
"0. c #BDB0AD",
"q. c #AFAEB1",
"w. c #B7ACB3",
"e. c #B7B4B1",
"r. c #BBB3B2",
"t. c #C79682",
"y. c #CB9C83",
"u. c #C19E8D",
"i. c #C39C93",
"p. c #C2A18E",
"a. c #CAA28E",
"s. c #C2A493",
"d. c #CAA596",
"f. c #C8A697",
"g. c #C4A699",
"h. c #C4AA9C",
"j. c #CAAC9C",
"k. c #D2A696",
"l. c #D3AB9B",
"z. c #CCB19F",
"x. c #C4AAA3",
"c. c #C3A8A6",
"v. c #CAAEA2",
"b. c #CAAEAA",
"n. c #D4AAA4",
"m. c #C7B1A6",
"M. c #CBB2A5",
"N. c #C4B3AB",
"B. c #CCB3AC",
"V. c #CDB9AE",
"C. c #D4B1A6",
"Z. c #D1B5AB",
"A. c #D2BAAE",
"S. c #DBB9AA",
"D. c #C3B4B4",
"F. c #CCB5B2",
"G. c #C7BEB7",
"H. c #CCBBB3",
"J. c #C9B7BA",
"K. c #C6BDBB",
"L. c #CCBDBB",
"P. c #D1B6B3",
"I. c #D4BCB3",
"U. c #D9BEB4",
"Y. c #D4BFBA",
"T. c #D8BDB9",
"R. c #CBC1BC",
"E. c #D6C1B5",
"W. c #DAC1B5",
"Q. c #D5C3BB",
"!. c #D9C4BC",
"~. c #DEC9BE",
"^. c #CDC3C3",
"/. c #CCC6C7",
"(. c #D3C5C3",
"). c #DBC6C2",
"_. c #D5C9C5",
"`. c #DBCAC3",
"'. c #D1C6C9",
"]. c #D4CCCB",
"[. c #DACDCA",
"{. c #D8D1CC",
"}. c #DBD1CD",
"|. c #D5D3D2",
" X c #DCD4D3",
".X c #DDD9D6",
"XX c #DDDADA",
"oX c #E1CDC4",
"OX c #E3CFC9",
"+X c #E4D2C7",
"@X c #E3D2CB",
"#X c #E1D6D5",
"$X c #E3D9D6",
"%X c #EADDD4",
"&X c #E4D7D9",
"*X c #E4DCDB",
"=X c #E9DCDC",
"-X c #E4E1DE",
";X c #EFE4DF",
":X c #E2DFE0",
">X c #EADEE3",
",X c #E6E3E4",
"<X c #EBE4E3",
"1X c #EAE8E6",
"2X c #E7E6E9",
"3X c #ECE7EA",
"4X c #EDEBEB",
"5X c #F1E5E5",
"6X c #F0ECEC",
"7X c #F3F1EF",
"8X c #EFECF2",
"9X c #F0EDF2",
"0X c #F4F2F3",
"qX c #F8F6F7",
"wX c #F9F7F8",
"eX c #F9F8F8",
"rX c #FCFBFB",
/* pixels */
"                        < 8                                 . O                                   ",
"                        j g.w                             + f V +                                 ",
"                        N C.<.7                         O v y.' *                                 ",
"                        r n.C.O.>     .               o y { { J +                                 ",
"                        7 n.n.d.K < X X             O s / { t.b .                                 ",
"                        = i.C.d.{ J u 7 2 > - > 2 8 Z ] / [ / r                                   ",
"                        O O.l.k.a.l.S.!.[.`.Q.M.d.{ ] P P P P 7                                   ",
"                        o T l.S.OX=X5X5X5X5X5X$XU.{ ] ] [ } H $                                   ",
"                        # ,.T.%X3X<X5X>X>X>X&X>X#XI.y.t.;.P B %                                   ",
"                        : F.5X3X&X#X&X&X5X&X&X>X X`.Z.v.v.<.G %                                   ",
"                      # >.3X&X:.d | '.>X>XOXJ.:.j F c.T.).T.c.8                                   ",
"                      p 3X8X&XC : 4 w.>X>X'.} 7 $ 2 o.T.).).!.+.#                                 ",
"                    # e.8X2X,XJ.F F ^.>X&X'.} y q N L.T.b.b.b.c.5                                 ",
"                    , |.2X:X*X>X>X&X>X'.T.).J.P.Y.[.`.B.c.c.v.j.N o                               ",
"                    5  X,X X X:X8X8XY.n.i.P.&X&X&XOXI.c.c.b.b.x.%.;                               ",
"                  . q :X,X|./.XX8X2X} P B c.&X#X).F.c.c.b.P.Z.v.%.>                               ",
"                . o 6 /.:X X].*X>XXX1.B P J.'.).T.c.h.b.P.b.b.v.W $                               ",
"                      I XX].'. X'.J.:.B L c.D.J.F.4.c.F.F.B.C.i.) w o                             ",
"                    . 6 K.]._./.D.5.} G S } <.9.4.;.b.P.Z.b.g.) ~ p.t .                           ",
"                  o .   h ^._.Q.w.5.5.1.$.O.#.%.;.c.Z.Z.v.s.) z R h.7.9 o                         ",
"                    o 6 ...X(.R.J.D.9.4.-.-.%.4.s.g.h.h.s.! 0 u %.m.P.h.G 0 *                     ",
"                X , F *X0X4X}.R.J.F.h.3.#._ #.2.2.2.%.! D v M 2.v.P.A.P.E.l./ u *                 ",
"              . q ^.0XeX0X4X-XR.9.:.3.$.@.U I _ Y N i f S O.z.M.A.P.A.Z.!.!.C.a.! 5               ",
"              q |.rXrXrX0X1X-X{.R.9.>.Y Y I I T T T +.+.,.b.H.E.I.I.P.M.I.).~.U.A.1.3             ",
"            6 |.rXrXrXeX7X3X-X$X]._.L.G.D.0.0.0.N.N.V.P.B.P.T.T.T.T.C.v.P.!.).).Q.Q.:.>           ",
"          , K.rXrXrXrXeX0X3X1X*X.X]._.(.^.L.L.H.H.V.Z.I.U.U.T.!.I.Z.v.v.Z.!.).).~.Q.Q.F +         ",
"        , e.rXrXrXrXeXqX0X1X-X*X X X}.`.).Q.E.E.A.I.U.A.W.W.W.W.I.C.j.v.Z.E.~.Q.Q.!.I.N.d .       ",
"      & w.rXrXrXrXrXrXqX6X1X<X&X#X#X}.[._.!.!.!.!.E.W.U.U.U.W.T.v.h.v.C.P.!.Q.~.).`.~.Q.5.5       ",
"    X | qXrXrXrXeXrXeX7X4X<X-X*X$X&X}.[.`.!.~.Q.).).!.!.U.W.!.A.d.j.C.A.E.!.~.).oXoX~.I.H.Y #     ",
"    , |.rXrXrXrXeXqX7X1X1X1X*X.X.X X X[.[.`.[.~.).Q.I.I.W.!.U.j.i.x.B.E.~.).).oXoX!.H.B.M.7.8     ",
"    e 8XrXrXrXrXeXqX7X1X,X,X,X&X X#X&X#X@X}.`.[.!.I.Q.!.~.I.v.p.f.Z.I.).`.).oXoX!.A.V.M.g.g.i     ",
"    k qXrXrXqXrX7X6X6X1X-X-X=X:X&X&X&X&X#X[.[.`.Q.Q.Q.Q.W.z.u.u.l.A.I.I.T.!.Q.E.A.j.h.d.<.=.V O   ",
"    X.0XqX0X0X0X8X2X-X<X-X.X.X$X*X$X$X.X}.@X[.~.Q.).Q.I.v.;.` ` p.p.f.h.v.v.B.v.v.g.s.u.&.) D =   ",
"  X X.0X4X4X4X4X2X2X-X-X$X}. X{. X{.}.[.].).`.(.).~.Q.H.d.' E E *.*.p.p.i.g.h.s.4.=.*.) Q Q U <   ",
"  X 8.3X,X,X,X,XXX.X}..X_._.|.{.].{.}._.`.[.`.Q.I.I.V.h.p.~ E *.p.p.p.p.;.;.<.;.;.&.` Q A A A 2   ",
"  X 8.2X*XXXXX.XXX-X.X~.E.E.R._.{.].~.~.(.Q.E.I.V.g.<.g.s.` &.2.d.p.p.*.;.&.&.) ` %.~ R K K D 2   ",
"  o q.,XXX|.|..X$X}.}.[.`.Q.R.Q.Q.R.R.Q.Q.Q.A.m.s.2.s.h.` %.p.2.=.;.2.2.2.*.=.) Q Q K A K J D 2   ",
"  # q.2XXX|.|.|.{._.}.}.$X@X`.V.R.Q._.R.H.V.m.h.4.;.*.' ' ` &.d.j.z.z.s.2._ ` Q K A n n m K m >   ",
"  o 8.0X,X|.|./.G.R._.{.$X}.}.E.h.N.R.V.V.m.h.6.;.;.&.` ( %.j.M.z.h.s.%.^ Q R K Z n x n M M u +   ",
"  X X.8X2XXX|.].|.].].}.$X$X+XE.M.7.m.M.9.7.h.4.2.` ( ~ ` j.j.j.f.s.2.` ` Q K Z n l z M A M 9 .   ",
"    | -XXX|.|.|.|.].[.[..X$X$XoXW.M.h.h.7.2.;.=.~ ! R _ d.Z.C.Z.v.g.;.;.=.&.) A n l n Z A n <     ",
"    k |.]. X.X_.G.0.9.L.&X,X-X@XoX!.7.3.2.#.#.! R S U 4.E.W.W.A.B.s.&.&.%.^ A m n x n Z Z y $     ",
"    6 e.r.R.}.'.0.:. .8.$X<X;X%X+X+XE.#.V U V S V _ E.E.W.W.E.V.j.u.A s f s l c c c c y r ;       ",
"    O h ....q.^.^.0.+.| R.<X%X~.Z.Z.A.3.f d a i i 9.~.E.M.z.p.h.;.D 7 @ $ * * ; ; * @ o .         ",
"      o , , 6 g h p q 3 j .XR.N.<.;.4.T 7 < < % - ..R.@.;.^ Z E c >                               ",
"                        & k j F j f t <           9 h i d t 7 < O                                 ",
"                          X X o o o .               X . X                                         "
};
