/* XPM */
static char *_cd3030fd88e4511ac62f971a7e6c027cUfDB8qesDweBPuf[] = {
/* columns rows colors chars-per-pixel */
"50 50 240 2 ",
"   c #010101",
".  c #0A0202",
"X  c #030A05",
"o  c #0B0B05",
"O  c #04060A",
"+  c #050A0C",
"@  c #0A0B0D",
"#  c #0A0509",
"$  c #140A0A",
"%  c #150808",
"&  c #0C110A",
"*  c #18140C",
"=  c #040C11",
"-  c #0A0E12",
";  c #0F081A",
":  c #0B1215",
">  c #0E1518",
",  c #081414",
"<  c #1B1213",
"1  c #1B1A15",
"2  c #12161A",
"3  c #141A1D",
"4  c #161617",
"5  c #110A11",
"6  c #22170D",
"7  c #211B14",
"8  c #251C1A",
"9  c #2A1B1B",
"0  c #271817",
"q  c #351916",
"w  c #2F0D0B",
"e  c #15211D",
"r  c #24231C",
"t  c #2A221A",
"y  c #36261C",
"u  c #1A1B22",
"i  c #2A1D22",
"p  c #1A2225",
"a  c #2B2C26",
"s  c #2D2D2A",
"d  c #252526",
"f  c #372827",
"g  c #2B3126",
"h  c #33322D",
"j  c #393729",
"k  c #383936",
"l  c #2C2D31",
"z  c #44231A",
"x  c #4E2E1C",
"c  c #4B1D20",
"v  c #4C2322",
"b  c #422C25",
"n  c #452926",
"m  c #552825",
"M  c #47362A",
"N  c #57332D",
"B  c #562F30",
"V  c #463936",
"C  c #533433",
"Z  c #5A3935",
"A  c #683E3B",
"S  c #78393A",
"D  c #702C27",
"F  c #5B251D",
"G  c #3B4739",
"H  c #544228",
"J  c #49443A",
"K  c #56483B",
"L  c #4E432B",
"P  c #69443C",
"I  c #78413C",
"U  c #393C41",
"Y  c #5A3C40",
"T  c #6C3D49",
"R  c #3D4546",
"E  c #474845",
"W  c #564A45",
"Q  c #555548",
"!  c #535552",
"~  c #694846",
"^  c #734B45",
"/  c #774A46",
"(  c #67574B",
")  c #78554B",
"_  c #675957",
"`  c #775854",
"'  c #744F53",
"]  c #686359",
"[  c #7B695E",
"{  c #7B664B",
"}  c #515A62",
"|  c #596872",
" . c #766965",
".. c #787367",
"X. c #767979",
"o. c #6A6D6F",
"O. c #91302C",
"+. c #A72F2C",
"@. c #9C1A21",
"#. c #C62F36",
"$. c #F2374C",
"%. c #854A4C",
"&. c #87554C",
"*. c #9A564C",
"=. c #835653",
"-. c #865A55",
";. c #955A57",
":. c #914B4B",
">. c #AD554F",
",. c #87645B",
"<. c #98635A",
"1. c #847254",
"2. c #A9635A",
"3. c #865C60",
"4. c #8C6C64",
"5. c #846664",
"6. c #986965",
"7. c #9B7369",
"8. c #897776",
"9. c #977871",
"0. c #8E7470",
"q. c #A56C67",
"w. c #AD746D",
"e. c #A7766E",
"r. c #B8776E",
"t. c #AD7473",
"y. c #A77A76",
"u. c #B57974",
"i. c #B77C76",
"p. c #B56C67",
"a. c #AB5E66",
"s. c #C4514C",
"d. c #D65F63",
"f. c #C57A77",
"g. c #D87768",
"h. c #98897F",
"j. c #918272",
"k. c #A88377",
"l. c #BC837B",
"z. c #B98678",
"x. c #AF9C7E",
"c. c #C1847D",
"v. c #C6877B",
"b. c #D78A78",
"n. c #717C83",
"m. c #897983",
"M. c #7B858A",
"N. c #998784",
"B. c #87949B",
"V. c #878B8E",
"C. c #A58983",
"Z. c #BA8A85",
"A. c #A89489",
"S. c #B7988A",
"D. c #A89499",
"F. c #BDA196",
"G. c #8E9EAB",
"H. c #929CA5",
"J. c #9AAAB7",
"K. c #99AEB5",
"L. c #A4A6A7",
"P. c #AAB2B8",
"I. c #AB97A0",
"U. c #C58B84",
"Y. c #CB8B83",
"T. c #C98D8B",
"R. c #C68684",
"E. c #D78F89",
"W. c #C8968B",
"Q. c #D4938B",
"!. c #D7988A",
"~. c #CA9A94",
"^. c #D39591",
"/. c #D49B93",
"(. c #DB9A94",
"). c #DB9E99",
"_. c #E9988E",
"`. c #C7A49A",
"'. c #D9A296",
"]. c #DCA49B",
"[. c #DCAA9D",
"{. c #D4A89B",
"}. c #D0B197",
"|. c #E2AB9E",
" X c #E2A49B",
".X c #C9A8A3",
"XX c #DDACA2",
"oX c #D5A9A2",
"OX c #CAB3AB",
"+X c #DCB3A4",
"@X c #DDB9AB",
"#X c #D8B7A7",
"$X c #DABAB2",
"%X c #E4ADA2",
"&X c #E7AAA4",
"*X c #E4B2A4",
"=X c #EBB3A6",
"-X c #E3B5AC",
";X c #ECB4AB",
":X c #E3BAAC",
">X c #EABAAB",
",X c #F2BBAD",
"<X c #F1B5AA",
"1X c #ECBDB2",
"2X c #E5BBB2",
"3X c #F6BDB4",
"4X c #D9C3B6",
"5X c #EBC2B4",
"6X c #EBCBBB",
"7X c #E7C4B9",
"8X c #F4C2B4",
"9X c #F4C5BA",
"0X c #F8C7BB",
"qX c #EFD1BF",
"wX c #AABDC9",
"eX c #CABEC2",
"rX c #FABBC3",
"tX c #B7CBD7",
"yX c #BDD1DD",
"uX c #B4C8CF",
"iX c #C5D2D1",
"pX c #FACDC3",
"aX c #F8CAC2",
"sX c #ECD3C3",
"dX c #FCD1C5",
"fX c #F6D3CA",
"gX c #FCD4CC",
"hX c #F7D5C9",
"jX c #FDDCD3",
"kX c #F8DAD4",
"lX c #EED2C9",
"zX c #FDE3DC",
"xX c #FCE1D5",
"cX c #C7DDE4",
"vX c #D4E9F0",
"bX c #FEEDE6",
"nX c #E7F7F8",
"mX c #FDFEFF",
"MX c #F8F9FA",
"NX c #E8EDEF",
/* pixels */
"                      X     O       ] OXsXqX6X6X4X4X4X}.#X}.}.*X4X#X0.* X     .         X     O     ",
"                    O   X     . o j.kXhX6X6X7X7X5X4X+X+X4X:X:X5X#X[.@XOX( X             .           ",
"                      O     . o h.xX7X#X+X2X2X1X5X5X5X+X*X:X5X:X-XXXU.W.F.0.o X +           .       ",
"                            . h.qX`.k.z.@XaXpXgX0X8X5X*XoX+X*X+XXX}.~.z.i.w.,..           .         ",
"                      O .   ..4XS.7.e.5XkXjXzXxXxXhXpX6X5X8X5X*X%X[.+XXX;XY.6.` .                   ",
"                  X .     W .XA.j.k.7XxXbXxXzXzXzXxXxXjXdXdX0X8X8X;X0XgXfXbXoXW. ..   X             ",
"                      . 7 A.C.4.,.{.gXgXhXxXxXjXkXkXjXjXgXdXdXdXfXpXaXkXzXkXbX$XOXV       O         ",
"                         .N.,.T k.4XgXfXhXxXdXgXkXjXkXgXjXjXgXgXrXsXfX$X$XkXzXfXZ.A.o   #           ",
"                  X X 4 N.` C 8..X2XlXdXdXdXqXdXdXhXgXdXhXpX-XA.F.@XgX7X~ A.bXkXS.y.( X   #         ",
"                  .   E 0.P ) 9.`.@X5X0X0XdX0X9X0XpXpXdXpXaX4.f 8.h.S.A.L y 2XjX{.=.N.o .           ",
"                  # . ` ' ` 4.y.`.@X1X1X8X8X,X8X8X8X8X0X0X1X4.Q Q g h Q L j.[.0X2X,.9.h       X     ",
"                  O O ` ,. .5.k.~.%X>X,X>X,X,X,X=X8X,X,X=X!.4.o. .e G J L { 1.4.2X7.4.W   #         ",
"                  O , 7.,._ 5.k.~.[.=X>X,X,X<X=X[.&X%X&X X].k...K & k ( M K M X 4.y.-.!     O       ",
"                X   J Z.6.` =.u.'.[.*X|.*X%X=X=X=X<X;X<X'.z.J ] Q j G J L J J & y k.' W     O       ",
"                  :. XY.q.^ ;.v.[.%X*X|.%X|.=X1X8X0XaX0X;Xk.( .XV.L.j.j j r h X 9 9.,.f   +         ",
"                * @.s.E.w.) 7./.[.'.[.|.1X,X9X9X0X0XlX9X=XA.A.rXV.X.] j r g d $ $ ` ~ <             ",
"                & +.s.<.z.<.r.+X'.'.'.|.;X-XoX~.F.~.2X[.).^./.&X~.N.] j M M V > $ P C   O     X     ",
"                o O.g.>.r.<.T.*X[.W.Z.z.6.-.~ Z n / 7.t.w.q.` y.f. .k G G j V g 1 n f +   O         ",
"                  :.s.O.>.W.[.+X'.!.z.,.~ S m v q w n A S / b M ~ K k h G h d g < C q     # O #     ",
"                  &.s.+.r.[.*X|.|.!.k.I m / ' 3.~ c q z v n t E k E _ ( W V E r + B ~ d             ",
"                X ` _.g.9X[.[.]. X[.U.t.6.) 9 r A m v q q y d 7 s f D O.z 6 < . * I t.C X X         ",
"                  f 3X_.{.*X/.&X+X*XXX).T.t.` ' =./ S A w t f d 5 q >.g.#.v . X y 2.;.%             ",
"                  0 ~.!.!.*XW.Q.[.8X9X+XW.t.2.a.-.;.&./ B n * 1 < c d.b.$.c $ X ^ *.F . X   #       ",
"                  O ~.b.E.-XW.v.). X>X5XoXZ.q.6.;.2.q.t.;.~ 8 4 q w +.+.>.z . C -.D % .   #   O     ",
"                o    .kX:X XE.l.Y.T.^. X&X(.R.p.r.^./.E.f.-.$ r 1 M b q y < . K -.C .               ",
"                    . n Z.Q.v.c.i.r.t.c.T.T.^. X]. X^.Q.z.' & r : j P x y r 9 i =.q     O           ",
"                      . 4.Q.v.z.i.t.q.i.f.R.(. XXX^.(.3XZ.0 > E 1 L [ ( y h a V ' %     O           ",
"                .   O   -.^.v.v.Y.i.w.u.T./. X(.T.R.(.<XU.* , Q Q j j f g s 8 ( k   O       X       ",
"                  #     7.(.c.v.T.c.i.R.^. X).E.i.E.3X|.Z.i $ ( E k a h h j q 4.$   O               ",
"                  . O   y.!.v.v.U.c.U.^.).).E.Y.f.f.E.&X).W J  .3 k a o [ Q f Y       X             ",
"                X     < i.R.v.Q.c.z.U.W./.(.^.^.R.:.v -.y._ ] K > h k e g * 7 .   O                 ",
"                  . O _ T.p.v.c.l.u.z.U.^.).^.(.E.t.~ z v f g G 6 t h k k r 4             X         ",
"                - = E MXZ.*.p.r.r.w.e.U.~.S.S.T.m.R.6.Y * * G k e r r e 9 A .                       ",
"              O 3 O H.mX`.&.*.p.p.<.e.v.<.4.-.6.Z.^.m.T * 6 j L 7 * o K K ~                         ",
"              @ : = P.mXbX5.S *.2.q.e.e.P q q A %.T T / x [ x.j.b & a ) m y   O                     ",
"          O O 5 = + E nXMX$XA S <.6.e.%.N A P B O.S c w z x.}.1.M * ,.<.K % O                       ",
"          . @ = + +   n.nXNXV.M A <.<.%.^ -.=.A ~ :.%.w # M H x . K z.z.f     .                     ",
"          + @ + + + - = G.nXvXX.n P -.) -.;.<.%.v w q < a K L t + L &.N +   O                       ",
"        O - - + + - = + + B.NXiXX.q C C ( q.t.u.6.C . O d 7 t h + . q o                             ",
"        + : - - + + - : + = B.vXuXV.8 * C =.6.7.y.=.B U R G Q k X 3 ; O     .                       ",
"      @ 2 : - + # + + + + O = B.yXuXM.p < i n C A ^ C t d k k $ i . X                               ",
"  # : : : : - @ - + + # O - O O M.uXwXH.U # < 5 < f 0 . o 0 0 _ o.O     o   .                       ",
"# : 3 3 - + @ : = + O + +   =   = n.wXJ.H.} u u 2 8 4 e 1 f Y N.iX# < +       O                     ",
"3 2 3 2 > = @ : + + +   @ O + : = = o.J.J.G.o.R f i h s f A ' F.MXE O u 3 +                         ",
"3 : - - : @ + + : O = O o + O   o X O | J.J.J.M.X._ E Y Z Z 8.iXMXL.  u > , : +                     ",
"- : : - : : : + + + - - O O + @ O + +   } J.J.wXK.wXJ.L.H.8.I.NXmXNXp = u > = , = O                 ",
"- > > > : : : : O - + O = + + O O O O = O } M.J.uXyXvXcXnXD.T 0.Z.MXo.  u u 2 = - # O               ",
"2 > : > : : : = , O - + - + + + = O   = O = n.G.J.yXcXvXnXY c S T 0.M.O : d 3 > > - +               ",
"> : > : : - : = @ - O + + @ @ O @ O O O X O > n.J.wXyXnXG.< 9 n T I X.p   u u p > - - = +           ",
"> : > : , - - : = - O O , O O + O & O X o -   l J.uXtXcXl . $ 0 B S m.l   : p p > > : - -           "
};
