/* XPM */
static char *_b5932c233f147f786765d3229123260wEhmIMTfSwzB4Uzc[] = {
/* columns rows colors chars-per-pixel */
"50 50 256 2 ",
"   c #2B1404",
".  c #4E0603",
"X  c #6D0A01",
"o  c #7B0D03",
"O  c #760A02",
"+  c #6E1201",
"@  c #691D05",
"#  c #7E1402",
"$  c #7C1D04",
"%  c #7B1D0B",
"&  c #741806",
"*  c #761E12",
"=  c #52280D",
"-  c #79240B",
";  c #6B2815",
":  c #7A2514",
">  c #7D2D1B",
",  c #772813",
"<  c #6A361A",
"1  c #75331B",
"2  c #7C3C1D",
"3  c #783618",
"4  c #6E290A",
"5  c #593822",
"6  c #7B3324",
"7  c #793925",
"8  c #703225",
"9  c #7B4225",
"0  c #7C432B",
"q  c #784829",
"w  c #794933",
"e  c #795435",
"r  c #6B452A",
"t  c #5F452C",
"y  c #7B5446",
"u  c #774A44",
"i  c #850A02",
"p  c #831304",
"a  c #851903",
"s  c #8A1B03",
"d  c #851C0B",
"f  c #8C1C0C",
"g  c #891307",
"h  c #951D04",
"j  c #941B0C",
"k  c #971908",
"l  c #881D12",
"z  c #97120A",
"x  c #A51D09",
"c  c #AF1E12",
"v  c #8C2304",
"b  c #83240D",
"n  c #8C230E",
"m  c #882A0B",
"M  c #9B2203",
"N  c #94240C",
"B  c #9B2B0C",
"V  c #962808",
"C  c #96320C",
"Z  c #8C2515",
"A  c #842C13",
"S  c #8B2B13",
"D  c #842D1A",
"F  c #8B2B1B",
"G  c #862417",
"H  c #932611",
"J  c #942C13",
"K  c #9A2B14",
"L  c #9B2D1B",
"P  c #972819",
"I  c #8D3414",
"U  c #83331B",
"Y  c #8B331B",
"T  c #843B1C",
"R  c #8C3A1D",
"E  c #853715",
"W  c #923315",
"Q  c #9B3514",
"!  c #9D3C14",
"~  c #93331C",
"^  c #9B341C",
"/  c #943B1C",
"(  c #9D3B1B",
")  c #973C13",
"_  c #81310E",
"`  c #A32402",
"'  c #AC2501",
"]  c #A42A04",
"[  c #A42B0D",
"{  c #A7270A",
"}  c #B52A08",
"|  c #A4320B",
" . c #AA370B",
".. c #B5360A",
"X. c #A42C13",
"o. c #A52D1B",
"O. c #AA2A16",
"+. c #B62E13",
"@. c #A43413",
"#. c #AD3513",
"$. c #A23A14",
"%. c #AB3B14",
"&. c #A4341B",
"*. c #A43B1D",
"=. c #AB3C1C",
"-. c #AB331B",
";. c #B43B14",
":. c #B23C1C",
">. c #B83617",
",. c #833423",
"<. c #8A3422",
"1. c #843B23",
"2. c #8B3D23",
"3. c #843C2B",
"4. c #8B3D2C",
"5. c #84362A",
"6. c #943423",
"7. c #933C24",
"8. c #9B3C23",
"9. c #943C29",
"0. c #9B3727",
"q. c #92352B",
"w. c #A33C24",
"e. c #A93A26",
"r. c #B63D25",
"t. c #A52A21",
"y. c #C53811",
"u. c #C63928",
"i. c #87421B",
"p. c #9B431B",
"a. c #96461A",
"s. c #A3431C",
"d. c #AA431C",
"f. c #A74719",
"g. c #B7451A",
"h. c #B34E16",
"j. c #834224",
"k. c #8D4324",
"l. c #84432B",
"z. c #8B432B",
"x. c #8C4B2C",
"c. c #864A27",
"v. c #934224",
"b. c #9B4324",
"n. c #94432B",
"m. c #9B432B",
"M. c #944B2C",
"N. c #9D4B2C",
"B. c #984A25",
"V. c #8B522E",
"C. c #85542A",
"Z. c #93532C",
"A. c #9C522C",
"S. c #9C582A",
"D. c #8C4333",
"F. c #854C34",
"G. c #8C4B33",
"H. c #8C4C3C",
"J. c #844534",
"K. c #924532",
"L. c #9B4433",
"P. c #944C33",
"I. c #9B4D32",
"U. c #964B3A",
"Y. c #8B5334",
"T. c #84533B",
"R. c #8C533B",
"E. c #885937",
"W. c #935334",
"Q. c #9B5333",
"!. c #935A34",
"~. c #9B5A33",
"^. c #94543C",
"/. c #9B543B",
"(. c #945C3C",
"). c #9C5B3A",
"_. c #A44324",
"`. c #AB4323",
"'. c #A54B24",
"]. c #AB4B24",
"[. c #A3452B",
"{. c #A9452C",
"}. c #A34C2B",
"|. c #AA4C2B",
" X c #B24324",
".X c #B64829",
"XX c #A3532C",
"oX c #AB532C",
"OX c #A65528",
"+X c #B65527",
"@X c #A24532",
"#X c #A34C34",
"$X c #AB4B32",
"%X c #A54C38",
"&X c #B54B36",
"*X c #A35334",
"=X c #AD5335",
"-X c #A45B35",
";X c #AB5A35",
":X c #A3593B",
">X c #AB5B3B",
",X c #A7553A",
"<X c #B45434",
"1X c #B65939",
"2X c #8A643D",
"3X c #9B643D",
"4X c #976439",
"5X c #A3623C",
"6X c #AC643D",
"7X c #A76538",
"8X c #B4643B",
"9X c #B06224",
"0X c #C74B16",
"qX c #C4532B",
"wX c #C5622F",
"eX c #8C5C44",
"rX c #875A42",
"tX c #945D43",
"yX c #9A5944",
"uX c #9C4E40",
"iX c #A45D44",
"pX c #AB5B44",
"aX c #B25A44",
"sX c #AB554D",
"dX c #8A6346",
"fX c #9C6444",
"gX c #946B4B",
"hX c #976647",
"jX c #9B724B",
"kX c #937248",
"lX c #8D6952",
"zX c #996C55",
"xX c #9A7457",
"cX c #8B7347",
"vX c #A46444",
"bX c #AD6243",
"nX c #A36C45",
"mX c #A36B4D",
"MX c #AA6A4D",
"NX c #A76748",
"BX c #B56746",
"VX c #A9744B",
"CX c #AA6C53",
"ZX c #B56E58",
"AX c #AA7856",
"SX c #B67555",
"DX c #BB7344",
"FX c #B07761",
"GX c #C6714F",
"HX c #C57A60",
"JX c #C35D44",
"KX c #A5825B",
"LX c #B78152",
"PX c #B38964",
"IX c #9C8152",
"UX c #C59073",
/* pixels */
"n.A.A.XXv.C.!.[.=X=XM.;XN.:X>X*X:X-X!.U.R.).Z.A.!.oX!.q T.}.B.-X!.=XR E.G.5.; G.0 7 l.7 J.5.(.U D T ",
"( -.$.&.w.7 L.n.'.}._.&.E XX-.o.g.&X:.} *Xa.h.{ e.g.-.6.-X>...;...} +XIXQ.d f v j o G.n.p K A 0.G 4.",
"< ,.,.6 1.Y.9.c.w n.m.F.w F.2.T.H.J.q /.5X3XE.#X'.}.B.q F.T c.k.B.:XCXlXH.6 1.j., D hXk.B.8.9.9.6 D.",
"9 T G j.iX, ~ b.2.' ] m.P M C n.s M 3 ;X..| /.h.h.;.'.&.o.R v.v s Z.R a K I.% d ; *Xo.H V.m.[.I.Y.: ",
"rXT.J.eXlX< ,.M.l.p.a.c.#XA.S.,XA.n.H.R.9 7 yXfXI.Z.F./.%XfXpX8.e.R.7 > U E.; G < x.J m (.6.G 2.G.+ ",
"<.3.1.Y j.nX@.f.N f.g.m N.oX( e.g.-.&X_.Y.m.o.*.pX:XM.gX7 , F F Y U 5./.e.w.'.d.L w.@ D Y b , ,.6 3.",
"b - - a Y 2Xe.7.~ N. XR !.>Xb.|.N.|.B.Q.4XN.*X>XBX.X=.fX7.H F G A d , 7 X.| =.B o.d c.& # p @ & + 5.",
"Q.c.[.w.p.N.$.s.(.Y.S Z f L S m x.8.! &.8.].p.~ y n.[.N.@XOX_.dX'.w.^ v.J R 6 5.Z J m 0.<.@X>Xb.}.M.",
"zX,X$.$.&.6.I  ./ M.F ,.S W _ P !./ Q #.C :.C E }.&.Q ( 9.*.f.pX[  . .#.| ` v._.v x Z H g 3 oX{ #.;.",
"m.G.0 :Xs.w.T b.a.`.!.>X*.d.oX;X&XN.jX1X`.a.b.[.A.4X+Xh.g.9X+X{.=XXXv.@Xz.w.n.v.F.6 2.XX,XR ( *X,X#X",
"M V A b.v C N &.( O.k.8.H |.<X<Xr.1XLXr.$.p.] ! d.MXGX+X.Xh.g.qX8XN.s M k M N J u   I >.wX[ ' 1X=.@.",
"^.oX;XfXrXY.V.^./ ~ I.mX1X-X).bXQ.bXfX!.fXbX(.x.*.@XfXOX].<X~.<XpXMX;XOX*XC.k.I.3Xw l.c.G.P.3 D.).Q.",
"*X+XwXoXMXBX8XDXe.) p.)..X`.-X8X:.u.7.KXPXaXiXo.X.N B.+.' &.T.b x <Xg.;.=.OXx z _ L.z a 9.K B _..Xd.",
"S.7XXXB.Y.gXY.~.n.m.Q.:XM.#XvX;XS.d.M.:XmXY.E.W.x.c.2Xx.B.k.eXe XXnXY.T 3.rXz.Y k.L.9.j.F.l.2 uX:X|.",
"B ^ L X.A n.F [ ( [ h O.p.! | ' ' M #.M OX.X{ $.+XqXr.n. X>.>.%.r.>.N.> & , T ~ - ; #XN K 8.d.( n.M.",
"b.R 2.N.7 ^.9.~ K.^.@X4.I.Q.w.$X{.I.@X9.).w.R R P.d.k.dX#X'.N.J l.S P.n.- G 9.3 / F Z.7.0.9._.7./ m.",
"M M.=.:. .Q e. X$XM.K X.p.W ^ L gXHX$XbX&XaXBXnX~.-.s.:.'.w.{.w <XSX8XqXoX.X'.Y b G D ( 3 iXU.Q E W ",
"8.~.#XQ *.L.{.i.z.l._ 7.E 2.b.Q !.bX`.B.v./ [.;X;X X`.[.*X+XQ SX`.*.! '.s.*.n.1.- H , D N.I.n.R 6.F ",
"L.a.( ^ l.T.! Q ~ *.( ^ Y.KX<Xf.@. X X%.6X>X( Q '.f.d.W./.g.g. X|.! '.5X%.;.oX8XwX.XvX8.$.( |.oXL.^.",
"8.p.J ^ ,.W.&.X.*.*.! B m.MX$. .! %.`.Q S.&.B #.#.+.x Y.bX>...f.'  . X6X#.;.d.f.].Q 5X.X$.*.#.M Z 9.",
"iX).v.iXL.=X/.lXQ.9.e jXe.L.^.pX@X9.3X%XNXMXVX8X;XZ.hXLXvX4Xn.7.1XmX<.l.,.tXv.F :X5XA.|.!.7.9.9.P.L.",
"=.B M XXs.] ~ 4Xn s T 1Xh m 2 n.W I 7Xr.o..XGX>.y./ bXqXg.6XBX-.oXCXw.}.8.OXh.qX*Xg.' ` '.[ V R $.` ",
"~.%X=X(.G.Y.P.Y.C.Z.fXpXx.E.7 6 3 D n.G.T.n.G.c.!.0 7 2 !.Q.mXQ.d.~.b.).}.*XOXXX3Xd.OX7.M.Y A l.}.b.",
"8XwX1X XK U.J ` B } | x  X!.-.v m v a # I.2.$ *..XJ f w.;X#.s.#.N k O.|.;.>.g.0Xg.y.a.L O.` ` } x B ",
"^.hX:XtX^.yXyXz.U.uXe.h.*XhXaXOXyXQ.M.[.!.P.k.:X*X{.].f.3XI.Q.8 yX).M.aX1XoXoX-X;X&X!.#X|.'.Q.U.Q.M.",
"x #X(.1 ~ m b F 2 C.w.o.K m N O.S.JX.XQ / -.=XJXVXr.d. .>.;.[ c.UX=XOX| h.| &XZXh...[ *.$.=.5X<.f p ",
"n.gXzXr n.9.k.B.l.E.z.l.n.I.N.m.bXQ.b.1.3 {.i.Z.nXL.1XoX=X,X{.MXlX*X>X#XOXoXaXKXXXb.7./ ( s.3XE G F ",
"( *.I *.e.x.=.! e.r.8.) [.I.w.=.r.{.$Xe.=X+Xg.g. X+Xf.oXFXT.P.2./.).NXPX:.%.>.$.&.L Y.,X=.Q `.=.S / ",
"| X.b Z G 2 w.H V B [ V *.A.X...#.&.@.*.1XOX#.>.=.#. .@.E.4.A M.pXSXPXZX>.@.$.V =.N k.~.&.^ ^ w.^ 8.",
"Q.R 0.= 9 , > > !.|.&XE.-XqXf.5Xf.) e.nXn.L.Y.AX~.N.P.VX|.8X1X7X1XwXAXyXpXVXCX8X<XV.N.'.b.;X8.( oXoX",
"W.N x , %X: & 3 ;X X.XvX+Xy.g.KX@.K =.!.L 0.PXxX|.w.CXHX..qX.X>.h.>.AXAXAXUXHX} d.3X1XqX+X7Xd.;.].f.",
"eXlXuX0 ^.R.rXU.xXZXMXjX6X!.).yXxXtX0 e ^.rXgXtXzXR.y w c.k.l.MX:XaXmXAXDXbXgX6X6XDXBXAXZXjXmX>XyXW.",
"* w & X o + p X U.<X] O.x | } | 3XF v X.6.2.C v.dX@ ; = P g ; I.wX&X] >.=.v <  X} ] } ] ' |.#Xh H 7 ",
"l.,.D 2.k.n.5.Y /.Q.E *XZ.Z.wXI pX@XB.b.: 7 j.P.hXG.J.w E.G.tXiXN.k.f.B.k.=XnX;XA.S.#Xc._ 9.U.2.q tX",
"..#.:.| d.mXz.H m p H o.6XNXj { h { >.M >Xb.{ H m N j Z ~.<X|.k w.`..XCXmXo. X! Y E v.F.- p # p # s ",
"'.}.m.p.p.2XyX4 ~ 0.H.,.7.0.D n.9.7.D 1.E.0 U > 2.5.* , H.@Xb.0.[.6 / (.nXvXbXa.7 1 1.H.<.<.4.4.7 5.",
"R A.3X! X.-.K @.>.{.dX*Xe.f A S L :Xx.,X[.8X1XL {.AX- $ & % p * M.hX9X0X0X..r.>.AX[.h H g s $.:X!.H ",
"G S iX> , <.1 <.A j.R.D 8.1.> , - (.x.D 7.n.2.- Y NXF , l : : ; : MXB.v.! C ^ I /.1.% L F - % <.vXU ",
"w G d 8 R.W ! A 3 J _.M.9.P &.e k.'.m.(.N.7.0 :Xe.e.1X#Xo.H J.0.L U.dXZXsX).Q.@.K ^.).J P x.J j F ^.",
"zX1 A 4.T.x N < H.e.8.E.> & b ^.=.@.$XMXb.<XR.(.N C I.L.s H NX9.9.CXIXVXnX4XAXQ B mXSXC K yXv.1.T MX",
"n.@Xm.m.R E.*XW.oX{.B.oX}.^.6./ / |.'.8.Z.M.&.].'.9.*X$.xX|.A.1X|.bXPXKXL.> 3.3.mX9.Y F 8.w.8.).m.m.",
"# f Z p p 1 f g i + + g d G.Z M Z [ w.N.kX2 s k O.d % s.rXf o.z s Z hXCX4 * X 1 F.+ # g d % % ^.k.M.",
"q k.G.j.x.eX4.0 y r 4.L./.bXhXxXyX2XcXjX/.yXCXAX*XZ.M.k.yXP.R.P.0.uX7 U.3.D.gXmXCX/.P.6.7.(.1.~ I 8.",
"1.d X + f o O l.lX0.&.@.B h X.xX/ a x O.c a `.VXk s i i z z U F # & i i i f nX`.X.{.( H Q 6X$XN f K ",
"y 7 7 D.,.z.G.yXxXE.P.rXe F.M.jXmXI.Q.*XF.Q.1XkXuXiXvXiXfX%XY./.W.:XiXgX^.(.(.^.M.,X3X6XQ.*X-X3XN.A.",
"  . . . . 4.D.l W $ A P q gXc J j k s i C.4 O j h f v & Q.+.M M o.j d I.i O o O + + U ~ i i g j g p ",
"5 6 8 5 8 4.< : ,.8 G.2.r rX6 ,.<.2.0 G.gX^.<.T j.J.2.D.hX4.-XU.G.F.5.G.T.J.8 J.z.> J.R.G.G.9.^.x.i.",
"P 8.T 8.P H ^.N.^ 8.Q.v.e.2.V.'.{.S.b.P P hX*XK $.tX`.^ G.FXS.0 W.{.j j jX(.p 1 dXj O 1.x.O o kXK s ",
"; * 5 z.f % z.<.d G '.W J - N.A.[.).v.n L bXk.L P Y.9.G < ZX4.i.N.i.l L hXR.0 > kX/.Y 3XxXe 2.jX<.<.",
"; 6 w 1.b D 1.2.n.N.m.b._.8.}.M.E.M.z.9 9 k.T (.2.Y.J.e e 5 t 3XXX9.~ F 3 I.xXz., Y Z b ,.fX/ b D D "
};
